<svg width="83" height="65" viewBox="0 0 83 65" fill="none" xmlns="http://www.w3.org/2000/svg">
<path fill-rule="evenodd" clip-rule="evenodd" d="M43.0967 0C65.135 6.66393e-05 83.001 14.5508 83.001 32.5C83.001 50.4492 65.135 64.9999 43.0967 65C32.6704 65 23.1789 61.7419 16.0704 56.4091C15.6774 56.1143 15.1938 55.963 14.7035 55.9951L2.1345 56.8166C0.490744 56.924 -0.570843 55.1095 0.328232 53.7292L5.52149 45.7565C5.90972 45.1604 5.94715 44.4053 5.65336 43.7575C4.06258 40.2498 3.1924 36.4579 3.1924 32.5C3.1924 14.5507 21.0583 0 43.0967 0Z" fill="white" fill-opacity="0.8"/>
<path d="M33.2408 18.0563L34.471 28.7771L33.0717 28.9416L32.9745 28.0945L30.9854 28.3283L31.0826 29.1754L29.7107 29.3367L28.4805 18.6158L33.2408 18.0563ZM30.826 26.9396L32.8152 26.7058L31.9993 19.5956L30.0101 19.8294L30.826 26.9396ZM23.1331 17.3302L24.5598 17.1626L24.8642 19.815L27.5942 19.4941C28.1232 24.1046 28.3813 26.9595 28.3684 28.0589C28.3475 29.0887 27.7206 29.6832 26.5134 29.8251C26.2939 29.8509 25.9203 29.8667 25.42 29.8692L24.912 28.5918C25.3848 28.5925 25.7858 28.5735 26.1288 28.5332C26.6501 28.472 26.9305 28.1294 26.9596 27.5348C26.9565 26.9018 26.7507 24.7445 26.3574 21.0751L25.0267 21.2315C25.4065 25.2684 24.839 28.3189 23.3546 30.4075L22.1593 29.5628C23.465 27.7345 23.9457 25.0179 23.6 21.3992L21.5697 21.6378L21.4072 20.2213L23.4375 19.9827L23.1331 17.3302Z" fill="#FF4C5C"/>
<path d="M36.4484 17.7778L35.1863 17.9261L35.0269 16.5374L39.554 16.0053L39.7134 17.394L37.8202 17.6166C37.7656 18.5941 37.6512 19.5365 37.4619 20.4313L39.7666 20.1604L40.5602 27.0762L38.4064 27.3294L38.4877 28.0376L37.1981 28.1892L36.6149 23.1065C36.4716 23.433 36.3268 23.7456 36.1666 24.0459L35.3025 22.9371C35.9841 21.3651 36.3569 19.6464 36.4484 17.7778ZM41.9301 18.7802L42.0321 19.669L43.6646 19.4771L43.5626 18.5883L41.9301 18.7802ZM42.166 20.8355L42.2648 21.6965L43.8973 21.5046L43.7985 20.6436L42.166 20.8355ZM45.2142 21.3498L47.7659 21.0499C48.1228 24.1606 48.1669 25.9991 47.912 26.5639C47.6433 27.1303 47.0562 27.4668 46.1234 27.5764C45.7804 27.6167 45.4359 27.6431 45.076 27.6573L44.6155 26.4307C45.0165 26.4117 45.3901 26.3959 45.733 26.3556C46.3915 26.2782 46.7607 25.9815 46.813 25.4686C46.8245 25.3265 46.8207 25.1722 46.8259 24.9745L45.9482 25.4436C45.7307 24.6388 45.4889 23.865 45.2076 23.1099L46.1361 22.7192C46.4142 23.4466 46.6326 24.1387 46.8157 24.7646C46.8036 24.1749 46.7402 23.3801 46.6271 22.3941L41.0848 23.0456L40.2403 15.6854L46.7977 14.9146L46.9363 16.1228L44.6454 16.3921L44.7457 17.267L46.7761 17.0283L46.9099 18.1948L44.8796 18.4335L44.9816 19.3223L47.0531 19.0788L47.1869 20.2453L45.1154 20.4888L45.2142 21.3498ZM43.3284 16.5469L41.6959 16.7388L41.7963 17.6137L43.4288 17.4218L43.3284 16.5469ZM41.0002 23.52L42.0884 23.6735C42.0911 25.151 42.0594 26.4496 41.9779 27.557L40.7487 27.2652C40.8841 26.264 40.9771 25.0146 41.0002 23.52ZM43.4032 23.3783C43.5779 24.174 43.7603 25.2786 43.9487 26.6779L42.8946 26.9426C42.7014 25.5015 42.5465 24.3938 42.4008 23.6087L43.4032 23.3783ZM44.8034 23.1011C45.0171 23.7515 45.2167 24.6429 45.4039 25.7891L44.3772 26.0505C44.2006 24.8749 44.0131 23.9681 43.8301 23.3422L44.8034 23.1011ZM38.2598 26.0518L39.1789 25.9437L38.6754 21.5554L37.7563 21.6634L38.2598 26.0518Z" fill="#FF4C5C"/>
<path d="M60.8885 15.2147L62.0868 25.6578L60.6876 25.8223L60.6206 25.239L56.0798 25.7728L56.1484 26.3699L54.7491 26.5344L53.5492 16.0774L56.4712 15.7339L56.2083 13.4426L57.6624 13.2716L57.9253 15.563L60.8885 15.2147ZM55.9205 24.3841L57.4432 24.2051L57.1022 21.2332L55.5795 21.4122L55.9205 24.3841ZM58.5564 21.0623L58.8974 24.0341L60.4613 23.8503L60.1203 20.8785L58.5564 21.0623ZM55.4265 20.0791L56.9492 19.9001L56.6305 17.1226L55.1078 17.3016L55.4265 20.0791ZM58.0847 16.9517L58.4034 19.7291L59.9673 19.5453L59.6486 16.7679L58.0847 16.9517ZM53.3858 19.1367L53.5547 20.6087C53.1686 20.8793 52.7826 21.1498 52.3933 21.3926L52.8395 25.281C52.9479 26.2253 52.5219 26.7539 51.5891 26.8636L50.423 27.0007L49.9465 25.6351C50.2959 25.6504 50.6283 25.6395 50.9438 25.6024C51.2456 25.5669 51.3911 25.3809 51.3561 25.0754L51.0262 22.2008C50.5684 22.4516 50.1105 22.7025 49.6358 22.9272L49.1102 21.497C49.6963 21.2733 50.2792 21.0219 50.8573 20.7287L50.5354 17.9235L48.9303 18.1122L48.7694 16.7096L50.3745 16.5209L50.1052 14.174L51.5456 14.0047L51.8149 16.3516L52.9947 16.2129L53.1556 17.6155L51.9758 17.7542L52.2276 19.9484C52.6153 19.6917 53.0013 19.4211 53.3858 19.1367Z" fill="#FF4C5C"/>
<path d="M20.7826 38.6478L21.8938 38.5172C22.0243 38.0796 22.1105 37.6191 22.1555 37.1634L23.4932 37.1891C23.4418 37.5893 23.3476 37.9803 23.2107 38.3624L24.7883 38.1769L25.4417 43.8706L24.1659 44.0206L24.2694 44.9233L29.798 44.2734L29.951 45.6066L24.4224 46.2564L24.8351 49.8532L23.4084 50.0209L22.9957 46.4241L17.4535 47.0756L17.3005 45.7424L22.8427 45.091L22.7392 44.1883L21.5457 44.3286C21.5858 44.4365 21.6107 44.5321 21.6509 44.6399L20.6934 45.0199C20.5898 44.7224 20.4861 44.425 20.3704 44.143C19.6244 44.4277 18.7139 44.7318 17.6662 45.052L17.331 44.1906C17.837 43.5119 18.2844 42.6852 18.6763 41.7384C18.1783 41.8814 17.6544 42.0415 17.1015 42.1909L16.7657 41.2029C17.0516 41.0286 17.4655 39.9103 18.009 37.8619L19.1801 38.1324C18.8106 39.2737 18.5083 40.1536 18.2428 40.7478C18.552 40.6552 18.8474 40.5642 19.1154 40.4764C19.267 39.98 19.4017 39.4575 19.5332 38.9072L20.6536 39.0992C20.4011 40.1704 20.1085 41.1337 19.7619 41.9908L20.4482 41.6709C20.7732 42.3223 21.0803 43.0603 21.3833 43.8832L20.7826 38.6478ZM19.596 42.3622C19.4195 42.7629 19.2261 43.1375 19.0296 43.4843L19.966 43.1631C19.8502 42.8812 19.7223 42.6147 19.596 42.3622ZM24.0231 42.8974L23.8892 41.7308L22.4488 41.9002L22.5826 43.0667L24.0231 42.8974ZM22.3181 40.7614L23.7586 40.5921L23.6263 39.4395L22.1859 39.6088L22.3181 40.7614ZM28.5341 40.6501C28.9653 41.5001 29.3697 42.48 29.7626 43.602L28.7915 43.9836C28.7047 43.7123 28.6043 43.4426 28.5191 43.1852C27.7748 43.4838 26.907 43.7969 25.9004 44.1123L25.5652 43.2509C26.0423 42.5615 26.4622 41.7381 26.8097 40.7683C26.3803 40.9032 25.9356 41.0259 25.4497 41.1533L25.1001 40.167C25.3448 39.9975 25.6643 38.9044 26.0755 36.9138L27.2466 37.1843C26.9593 38.3158 26.6967 39.1771 26.4844 39.7509C26.7524 39.6632 26.9946 39.5925 27.2214 39.5095C27.3609 39.0287 27.4835 38.5216 27.5907 38.0024L28.7127 38.2083C28.4934 39.2052 28.2493 40.1065 27.9665 40.9138L28.5341 40.6501ZM27.7843 41.3856C27.6094 41.8003 27.4313 42.1871 27.2501 42.5462C27.5455 42.4552 27.8531 42.3487 28.1469 42.2437C28.028 41.934 27.8985 41.6537 27.7843 41.3856ZM21.3645 46.8692L22.3607 47.5543C21.4022 48.6522 20.1671 49.6419 18.6708 50.5355L17.688 49.4829C19.1802 48.6741 20.4006 47.7988 21.3645 46.8692ZM29.4091 49.2452C28.2007 48.5287 26.8446 47.8577 25.3287 47.2477L26.0957 46.299C27.2506 46.67 28.6536 47.2651 30.2927 48.0998L29.4091 49.2452Z" fill="#FF4C5C"/>
<path d="M42.1467 35.2077L43.5729 47.6367L42.2011 47.7979L42.1453 47.3119L33.3655 48.3438L33.4213 48.8299L32.0494 48.9911L30.6233 36.5622L42.1467 35.2077ZM33.2157 47.0385L35.7948 46.7353L35.3668 45.913C35.5767 45.8039 35.6705 45.6521 35.6482 45.4577L35.6068 45.0966C35.1416 45.4046 34.6183 45.6913 34.0402 45.9845L33.2728 44.991C34.4724 44.5403 35.3395 44.1006 35.888 43.6702L34.132 43.8766L33.85 41.4186L40.1056 40.6833L40.3717 43.0024C40.3838 42.9869 40.3959 42.9714 40.4097 42.9698L41.323 43.5381C40.9675 43.8332 40.6089 44.1005 40.2487 44.354C40.6842 44.5139 41.0938 44.6909 41.505 44.8819L40.9644 45.9869C39.7914 45.3366 38.6101 44.8562 37.4205 44.5457L37.8995 43.6308C38.327 43.7213 38.7439 43.8412 39.1487 43.9766C39.5348 43.706 39.8918 43.4248 40.1956 43.1639L37.2873 43.5057C37.107 43.7521 36.8993 44.0017 36.6504 44.2562L36.7874 45.4505C37.2411 45.2845 37.6795 45.1063 38.13 44.9126L38.4489 45.8744C37.6908 46.1747 36.9296 46.4471 36.1652 46.6918L41.9955 46.0065L40.9247 36.6743L32.1449 37.7063L33.2157 47.0385ZM33.3364 38.3967L35.984 38.0855L35.9219 37.5439L37.2114 37.3923L37.2736 37.9339L39.9212 37.6227L40.0391 38.6503L37.3915 38.9615L37.4505 39.4753L40.7703 39.0851L40.8914 40.1406L33.0033 41.0677L32.8822 40.0123L36.1609 39.6269L36.102 39.1131L33.4543 39.4243L33.3364 38.3967ZM39.1027 42.3634L39.0342 41.7663L35.1244 42.2259L35.1929 42.823L39.1027 42.3634Z" fill="#FF4C5C"/>
<path d="M46.1528 37.8895L46.2611 38.8338L48.7305 38.5436L48.6221 37.5992L46.1528 37.8895ZM48.4914 36.4605L48.391 35.5856L45.9217 35.8759L46.0221 36.7507L48.4914 36.4605ZM52.2986 37.1671L52.4086 38.1253L54.823 37.8415L54.7131 36.8833L52.2986 37.1671ZM54.5824 35.7446L54.4852 34.8974L52.0708 35.1812L52.168 36.0284L54.5824 35.7446ZM54.9585 39.0219L51.1173 39.4734L50.507 34.1547L55.7612 33.5371L56.9882 44.2301C57.1204 45.3828 56.7209 46.0209 55.8155 46.1273C55.3217 46.1853 54.8383 46.214 54.3413 46.2443L53.8316 44.953C54.3028 44.9399 54.745 44.916 55.1566 44.8677C55.4584 44.8322 55.5895 44.5212 55.5226 43.938L54.9585 39.0219ZM49.6839 34.2514L50.2926 39.5563L46.3966 40.0142L47.2157 47.1522L45.7889 47.3199L44.3612 34.877L49.6839 34.2514Z" fill="#FF4C5C"/>
<path d="M57.6728 33.3546L69.9645 31.9098L70.1079 33.1597L66.1159 33.6289L66.2083 34.4343L69.2538 34.0764L69.6362 37.4093L59.2377 38.6315L58.8552 35.2986L61.9007 34.9407L61.8083 34.1352L57.8162 34.6044L57.6728 33.3546ZM64.8502 34.594L64.7578 33.7885L63.1664 33.9756L63.2588 34.781L64.8502 34.594ZM68.1305 36.404L68.0158 35.4041L66.3422 35.6009L66.4569 36.6007L68.1305 36.404ZM65.0988 36.7604L64.984 35.7605L63.3927 35.9475L63.5074 36.9474L65.0988 36.7604ZM62.1493 37.107L62.0346 36.1072L60.3609 36.3039L60.4757 37.3038L62.1493 37.107ZM59.9653 39.2779L69.1704 38.1959L69.3074 39.3902L60.1023 40.4722L59.9653 39.2779ZM58.8054 41.2861L70.6581 39.8929L70.7999 41.1289L65.7104 41.7271L66.0769 44.9211L64.7051 45.0824L64.3386 41.8884L58.9472 42.5221L58.8054 41.2861ZM67.8744 41.6839C69.1807 42.1637 70.2813 42.6677 71.1899 43.1942L70.3048 44.3257C69.5213 43.7985 68.4433 43.2496 67.0451 42.6962L67.8744 41.6839ZM62.3353 42.3631L63.3638 43.0867C62.5476 43.9708 61.5145 44.7818 60.2629 45.506L59.2679 44.4689C60.5138 43.8157 61.5322 43.119 62.3353 42.3631Z" fill="#FF4C5C"/>
</svg>
