<svg width="154" height="99" viewBox="0 0 154 99" fill="none" xmlns="http://www.w3.org/2000/svg">
<path d="M62.5994 55.1082C86.0237 51.0035 98.5778 61.5714 101.64 73.3535C103.362 67.4629 109.678 65.3721 120.012 67.6525C128.082 69.4334 131.112 76.3936 133.217 80.7644C134.939 77.5338 146.154 74.1372 152.163 85.3258C156.757 93.8773 152.163 98.4376 144.7 98.4376C98.578 99.3878 6.26706 98.4376 2.31599 98.4376C-3.02597 98.4376 1.56741 88.4109 9.03107 83.8515C15.002 80.204 26.8121 79.2446 33.3189 80.7644C33.3189 73.9226 39.175 59.213 62.5994 55.1082Z" fill="#F0FFFF"/>
<path fill-rule="evenodd" clip-rule="evenodd" d="M125.443 8.29902C126.643 8.31725 127.504 9.45257 127.188 10.6015L120.706 34.2375C120.258 35.8722 119.493 37.2537 118.395 38.3487L118.396 38.3499C117.36 39.4009 116.145 40.127 114.762 40.5108C113.409 40.9044 112.047 40.9209 110.696 40.5561C109.411 40.2089 108.368 39.5929 107.763 38.6071L107.75 38.585C107.202 37.6323 107.124 36.5632 107.429 35.4547C107.729 34.3587 108.327 33.4235 109.201 32.6651C110.052 31.9272 111.029 31.4188 112.12 31.1471C113.252 30.8519 114.37 30.8432 115.456 31.1364L115.805 31.2408C116.126 31.3494 116.438 31.4881 116.741 31.6518C116.76 31.6591 116.784 31.6648 116.813 31.6655C116.846 31.6663 116.877 31.6612 116.899 31.6531C116.903 31.6514 116.908 31.6485 116.911 31.647L119.708 21.4464L106.653 21.431L103.812 31.7872C103.364 33.4218 102.599 34.8034 101.501 35.8983C100.463 36.9523 99.2448 37.6809 97.8568 38.0639L97.8563 38.0627C96.5028 38.454 95.1289 38.4628 93.7537 38.0914C92.4927 37.7507 91.4722 37.1364 90.8705 36.1563L90.8573 36.1342C90.31 35.1821 90.2306 34.1135 90.5348 33.0043C90.8354 31.9083 91.4332 30.9731 92.3076 30.2148C93.1558 29.4793 94.129 28.9709 95.2157 28.6985C96.3515 28.4004 97.4739 28.3903 98.563 28.6844C99.0089 28.8049 99.438 28.9789 99.8501 29.2019C99.8686 29.2087 99.8923 29.2149 99.9201 29.2156C99.9533 29.2163 99.9837 29.2094 100.006 29.2012C100.01 29.1996 100.014 29.1981 100.017 29.1966L105.455 9.36893C105.676 8.56505 106.417 8.01001 107.257 8.02257L125.443 8.29902ZM108.721 13.89L108.15 15.9709L121.206 15.9863L121.791 13.8522L108.721 13.89Z" fill="#3680C7"/>
<path d="M34.1755 55.0004C35.0186 54.8459 35.8322 55.3771 35.9931 56.1867L36.1804 57.1304C36.223 57.3447 36.3244 57.5354 36.473 57.6773C36.6458 57.8422 36.8255 58.0019 37.0117 58.156C37.6437 58.6237 38.2766 59.0914 38.9086 59.5591C39.7675 60.1205 40.5929 60.762 41.3843 61.4819C42.2189 62.1846 42.9506 63.0522 43.5807 64.0791L43.7051 64.274C44.3143 65.26 44.753 66.4529 45.0294 67.8435C45.3069 69.2406 45.3601 70.5816 45.1852 71.8632C45.048 73.0052 44.7165 74.1411 44.1944 75.269C44.048 75.5854 43.7482 75.8023 43.4052 75.8654C42.6049 76.0123 41.9458 75.3143 42.0964 74.5788C42.2561 73.7993 42.3518 73.0555 42.3855 72.3474C42.4281 71.304 42.3634 70.3592 42.1952 69.5125C41.9503 68.2798 41.5103 67.3094 40.8933 66.5805L40.8878 66.5745L40.8831 66.5678C40.2728 65.7865 39.5791 65.2311 38.8051 64.8862L38.7973 64.8825L38.7887 64.8781C38.5201 64.7436 38.287 64.7992 38.1197 64.9486C37.9402 65.109 37.823 65.3959 37.8886 65.7261L39.8748 75.7258C40.1462 77.0917 40.065 78.3701 39.6176 79.5508C39.2 80.6852 38.5224 81.6395 37.5876 82.4051L37.5868 82.4043C36.6829 83.164 35.6238 83.6556 34.416 83.8774C33.3082 84.0808 32.3456 83.9939 31.5805 83.5466L31.5711 83.5406C30.8459 83.0889 30.403 82.3992 30.2277 81.517C30.0537 80.6411 30.1668 79.7775 30.5568 78.9369C30.9406 78.1099 31.5034 77.4058 32.2424 76.8294L32.5345 76.6097C33.2239 76.1213 33.9789 75.7992 34.7969 75.649C35.1883 75.5772 35.5873 75.5501 35.9933 75.5658C36.1616 75.5584 36.327 75.4821 36.4392 75.367C36.5492 75.2539 36.5907 75.125 36.5666 75.0036L32.9396 56.7465C32.779 55.9368 33.3323 55.1552 34.1755 55.0004Z" fill="#3680C7"/>
</svg>
