<svg width="161" height="83" viewBox="0 0 161 83" fill="none" xmlns="http://www.w3.org/2000/svg">
<path d="M117.509 4.42302C105.383 3.46425 98.9157 13.4115 97.1978 18.5049C90.6496 14.6691 84.3642 23.2991 82.04 28.0935H160.254C161.366 27.2946 162.073 24.2583 156.01 18.5049C149.947 12.7516 140.751 16.1077 136.911 18.5049C135.496 14.2105 129.635 5.38179 117.509 4.42302Z" fill="#F0FFFF"/>
<path d="M80.5145 38.7659C60.1248 35.2056 49.1971 44.3717 46.5318 54.591C45.0326 49.4818 39.5348 47.6683 30.5399 49.6462C23.5149 51.1909 20.8781 57.2278 19.0457 61.0188C17.5464 58.2168 6.84039 57.4534 1.60939 67.1579C-2.38875 74.5751 1.60931 81.8692 7.60576 81.9923C47.7522 82.8165 129.49 81.9923 131.543 81.9923C135.842 81.9923 135.987 64.9735 129.49 61.0188C124.293 57.8551 111.666 59.7006 106.002 61.0188C106.002 55.0846 100.904 42.3262 80.5145 38.7659Z" fill="#F0FFFF"/>
<path d="M124.975 0.688793C125.732 0.14048 126.811 0.470525 127.161 1.35708L134.169 19.1116L134.256 19.3426C134.675 20.4942 134.823 21.6313 134.678 22.742L134.678 22.7424C134.54 23.871 134.144 24.8775 133.487 25.7455L133.488 25.746C132.852 26.607 132.035 27.2337 131.048 27.6151C130.11 27.9776 129.191 28.0625 128.364 27.7128L128.354 27.7083L128.344 27.7044C127.57 27.35 127.026 26.709 126.696 25.8736C126.371 25.0482 126.298 24.1892 126.474 23.3166C126.645 22.4699 126.998 21.7083 127.529 21.0441L127.74 20.79C128.247 20.2165 128.851 19.7869 129.549 19.5173L129.809 19.4265C130.052 19.3501 130.303 19.2959 130.561 19.2621C130.573 19.2592 130.589 19.2541 130.606 19.2422C130.622 19.2309 130.633 19.217 130.641 19.2058L125.369 5.84896L117.564 11.7299L122.872 25.18C123.358 26.4108 123.536 27.6254 123.381 28.8104C123.243 29.9392 122.848 30.9458 122.191 31.8137C121.554 32.6771 120.724 33.3102 119.715 33.6998C118.793 34.0559 117.888 34.1283 117.067 33.7808L117.058 33.7767L117.048 33.7729C116.274 33.4187 115.73 32.7799 115.4 31.944C115.075 31.1183 115.002 30.2585 115.179 29.3848L115.251 29.0705C115.441 28.3489 115.768 27.6935 116.232 27.1126C116.781 26.4095 117.457 25.8952 118.253 25.5877C118.577 25.4626 118.916 25.3784 119.267 25.3324C119.279 25.3294 119.294 25.3242 119.309 25.3131C119.325 25.3016 119.338 25.2878 119.346 25.2762L113.465 10.3766C113.221 9.75857 113.419 9.05949 113.947 8.67726L124.975 0.688793Z" fill="#3680C7"/>
</svg>
