<svg width="28" height="28" viewBox="0 0 28 28" fill="none" xmlns="http://www.w3.org/2000/svg">
<g clip-path="url(#clip0_4405_732)">
<path d="M14.3301 12.1147C14.9038 12.1148 15.3442 12.6223 15.2632 13.1903L14.6468 17.5094C14.5596 18.1196 15.0744 18.6484 15.687 18.5804C16.2224 18.5209 16.4299 19.2594 15.9377 19.4782L14.714 20.0228C14.5551 20.0934 14.3872 20.1417 14.215 20.1663L13.8128 20.2233C12.5248 20.4073 11.4419 19.2627 11.6971 17.9868L12.1175 15.8859L12.4183 14.0767C12.5128 13.5084 12.14 12.9673 11.5752 12.8542C11.1326 12.7656 11.1967 12.1147 11.6481 12.1147H14.3301Z" fill="#2C53A2"/>
<path d="M14.0031 8.34245C14.7841 8.34256 15.417 8.97642 15.417 9.75749C15.4167 10.5383 14.784 11.1713 14.0031 11.1714C13.2221 11.1714 12.5883 10.5384 12.5881 9.75749C12.5881 8.97635 13.222 8.34245 14.0031 8.34245Z" fill="#2C53A2"/>
<path fill-rule="evenodd" clip-rule="evenodd" d="M14.0008 2.75293C20.2123 2.75301 25.2482 7.78874 25.2482 14.0003C25.248 20.2118 20.2121 25.2465 14.0008 25.2466C11.7959 25.2466 9.73957 24.6085 8.00342 23.5114L4.89079 25.0688C3.63755 25.695 2.3073 24.3659 2.93343 23.1126L4.48861 19.9989C3.39121 18.2626 2.75349 16.2055 2.75342 14.0003C2.75342 7.7887 7.78919 2.75293 14.0008 2.75293ZM14.0008 4.50293C8.75569 4.50293 4.50342 8.7552 4.50342 14.0003L4.51025 14.3774C4.58377 16.2562 5.204 17.9928 6.21468 19.4372L6.51318 19.8633L4.88965 23.1115L8.13786 21.488L8.5651 21.7865C10.1055 22.8639 11.9778 23.4966 14.0008 23.4966L14.4896 23.484C19.5075 23.2296 23.498 19.0812 23.4982 14.0003C23.4982 8.91919 19.5075 4.76994 14.4896 4.51546L14.0008 4.50293Z" fill="#2C53A2"/>
</g>
<defs>
<clipPath id="clip0_4405_732">
<rect width="28" height="28" fill="white"/>
</clipPath>
</defs>
</svg>
