<svg width="28" height="28" viewBox="0 0 28 28" fill="none" xmlns="http://www.w3.org/2000/svg">
<g clip-path="url(#clip0_6011_321)">
<path d="M12.8333 8.16659H15.1666V10.4999H12.8333V8.16659ZM12.8333 12.8333H15.1666V19.8333H12.8333V12.8333ZM13.9999 2.33325C7.55992 2.33325 2.33325 7.55992 2.33325 13.9999C2.33325 20.4399 7.55992 25.6666 13.9999 25.6666C20.4399 25.6666 25.6666 20.4399 25.6666 13.9999C25.6666 7.55992 20.4399 2.33325 13.9999 2.33325ZM13.9999 23.3333C8.85492 23.3333 4.66659 19.1449 4.66659 13.9999C4.66659 8.85492 8.85492 4.66659 13.9999 4.66659C19.1449 4.66659 23.3333 8.85492 23.3333 13.9999C23.3333 19.1449 19.1449 23.3333 13.9999 23.3333Z" fill="#FF874B"/>
</g>
<defs>
<clipPath id="clip0_6011_321">
<rect width="28" height="28" fill="white"/>
</clipPath>
</defs>
</svg>
