<svg width="28" height="28" viewBox="0 0 28 28" fill="none" xmlns="http://www.w3.org/2000/svg">
<g clip-path="url(#clip0_4322_1764)">
<path d="M14.3301 12.1152C14.9038 12.1152 15.3442 12.6228 15.2632 13.1908L14.6468 17.5099C14.5596 18.1201 15.0744 18.6489 15.687 18.5809C16.2224 18.5214 16.4299 19.2599 15.9377 19.4787L14.714 20.0233C14.5551 20.0939 14.3872 20.1422 14.215 20.1668L13.8128 20.2238C12.5248 20.4078 11.4419 19.2632 11.6971 17.9873L12.1175 15.8864L12.4183 14.0771C12.5128 13.5089 12.14 12.9678 11.5752 12.8547C11.1326 12.7661 11.1967 12.1152 11.6481 12.1152H14.3301Z" fill="#FF7B3B"/>
<path d="M14.0031 8.34294C14.7841 8.34305 15.417 8.9769 15.417 9.75798C15.4167 10.5388 14.784 11.1718 14.0031 11.1719C13.2221 11.1719 12.5883 10.5389 12.5881 9.75798C12.5881 8.97683 13.222 8.34294 14.0031 8.34294Z" fill="#FF7B3B"/>
<path fill-rule="evenodd" clip-rule="evenodd" d="M14.0008 2.75342C20.2123 2.7535 25.2482 7.78923 25.2482 14.0008C25.248 20.2123 20.2121 25.247 14.0008 25.2471C11.7959 25.2471 9.73957 24.609 8.00342 23.5119L4.89079 25.0693C3.63755 25.6955 2.3073 24.3664 2.93343 23.1131L4.48861 19.9993C3.39121 18.2631 2.75349 16.206 2.75342 14.0008C2.75342 7.78919 7.78919 2.75342 14.0008 2.75342ZM14.0008 4.50342C8.75569 4.50342 4.50342 8.75569 4.50342 14.0008L4.51025 14.3779C4.58377 16.2567 5.204 17.9933 6.21468 19.4377L6.51318 19.8638L4.88965 23.112L8.13786 21.4884L8.5651 21.7869C10.1055 22.8644 11.9778 23.4971 14.0008 23.4971L14.4896 23.4845C19.5075 23.2301 23.498 19.0817 23.4982 14.0008C23.4982 8.91968 19.5075 4.77043 14.4896 4.51595L14.0008 4.50342Z" fill="#FF7B3B"/>
</g>
<defs>
<clipPath id="clip0_4322_1764">
<rect width="28" height="28" fill="white"/>
</clipPath>
</defs>
</svg>
