<svg width="110" height="41" viewBox="0 0 110 41" fill="none" xmlns="http://www.w3.org/2000/svg">
<mask id="path-1-outside-1_6004_298" maskUnits="userSpaceOnUse" x="0" y="-0.816101" width="109" height="42" fill="black">
<rect fill="white" y="-0.816101" width="109" height="42"/>
<path d="M13.2768 4.38558L18.1954 5.96541C17.3134 8.15029 16.228 10.436 14.9729 12.6209V36.0831H10.0882V19.7805C9.34193 20.6881 8.59566 21.4948 7.84939 22.2343C7.34057 20.9906 5.88195 18.2343 5 16.9906C8.29037 13.999 11.445 9.22592 13.2768 4.38558ZM38.1072 23.0747H29.6947V30.4024H37.327V35.0747H17.3134V30.4024H24.6744V23.0747H16.3976V18.3688H24.6744V11.8478H18.0258V7.24272H36.8182V11.8478H29.6947V18.3688H38.1072V23.0747Z"/>
<path d="M54.2877 23.041H58.7313C58.8331 22.2679 58.901 21.4612 58.9688 20.6545C57.9851 20.9906 56.9674 21.3268 55.9159 21.5957C55.7123 21.1923 55.3392 20.6545 54.9661 20.1167C54.7626 21.1251 54.5251 22.0999 54.2877 23.041ZM64.0231 11.5452H60.2578C60.8684 12.2847 61.5807 12.957 62.4288 13.5621C63.0393 12.957 63.5821 12.2847 64.0231 11.5452ZM71.2144 11.5452H69.5522C68.7721 13.2259 67.7883 14.6713 66.635 15.915C68.2972 16.5873 70.1628 17.1251 72.1981 17.4612C71.1465 18.436 69.7558 20.352 69.1113 21.5957C66.6689 20.9906 64.498 20.1167 62.5984 19.0074C61.7843 19.4444 60.9701 19.8478 60.0882 20.2175H63.8874C63.8195 21.1923 63.7178 22.1335 63.616 23.041H70.9769C70.9769 23.041 70.9091 24.2175 70.8412 24.8226C70.3324 30.3688 69.7558 33.0242 68.772 34.0999C67.9579 35.0074 67.1438 35.3099 66.0923 35.478C65.2103 35.6125 63.8195 35.6461 62.2592 35.6125C62.1913 34.2343 61.6825 32.352 60.9362 31.1419C62.0217 31.2427 63.0393 31.2763 63.5821 31.2763C64.057 31.2763 64.3284 31.2091 64.6676 30.873C65.0407 30.5032 65.4138 29.394 65.7191 27.041H62.8019C61.6147 30.9066 59.2062 34.0326 53.8467 36.1839C53.3039 35.0074 52.0488 33.2931 51.0312 32.3856C54.7286 31.0747 56.6282 29.2259 57.6459 27.041H54.2877V23.0747C54.0163 24.1503 53.7449 25.1251 53.4396 25.9654L50.1832 24.4528C50.4545 23.3099 50.7259 21.7973 50.9294 20.2511H49.8779V31.0074C49.8779 33.1251 49.5726 34.4024 48.2157 35.1755C46.8928 35.915 45.2307 36.0158 43.0936 36.0158C42.9579 34.6713 42.3134 32.6545 41.7028 31.3436C42.8562 31.4108 44.2469 31.4108 44.6879 31.4108C45.095 31.3772 45.2307 31.3099 45.2307 30.9066V25.6293C44.1791 27.6797 42.8901 29.5284 41.4315 30.7721C41.0244 29.3604 39.9729 27.3436 39.2266 25.999C40.9905 24.5873 42.5509 22.4696 43.6703 20.2511H39.9389V16.0158H46.7571C44.9593 15.0747 42.7883 14.1335 41.0244 13.4612L44.1113 10.3352C44.8236 10.5705 45.6038 10.8394 46.4179 11.1419C46.8928 10.7049 47.4016 10.2343 47.8426 9.73012H40.4817V5.66289H51.2008L51.9471 5.49482L55.0678 7.41079C53.9824 9.25953 52.2185 11.2427 50.3867 12.8562C51.2687 13.2931 52.0488 13.6965 52.6594 14.0663L50.7938 16.0158H51.9471L52.5916 15.8141L55.5427 16.7553L55.5088 16.9906C56.6282 16.7217 57.6459 16.3856 58.5957 15.9486C57.9851 15.3436 57.4084 14.6713 56.8657 13.9654C56.5265 14.3015 56.1872 14.6041 55.882 14.873C54.9322 14.0999 52.9986 12.7889 51.8792 12.1839C54.5251 10.3015 57.0353 7.24272 58.3921 4.1839L62.9715 5.46121C62.6323 6.16709 62.2592 6.87298 61.8521 7.54524H71.2144V11.5452Z"/>
<path d="M85.0543 18.5032L85.6309 22.9066C84.5115 23.2091 83.3921 23.478 82.2388 23.7805V31.2091C82.2388 33.394 81.8657 34.5705 80.6106 35.2763C79.3216 36.0158 77.5916 36.1503 75.1493 36.1503C75.0136 34.9066 74.403 32.9906 73.8263 31.7469C75.0136 31.8141 76.4043 31.8142 76.8453 31.8142C77.3202 31.8142 77.4898 31.6461 77.4898 31.1755V24.957L74.3691 25.7301L73.1818 21.0578C74.4369 20.8226 75.8955 20.52 77.4898 20.1839V14.8394H73.7246V10.3352H77.4898V4.21751H82.2388V10.3352H85.19V14.8394H82.2388V19.1419L85.0543 18.5032ZM97.5034 28.957H100.081V24.6881H97.5034V28.957ZM90.4478 24.6881V28.957H92.8562V24.6881H90.4478ZM92.8562 16.2511H90.4478V20.1503H92.8562V16.2511ZM100.081 16.2511H97.5034V20.1503H100.081V16.2511ZM97.5034 11.6125H105V35.8814H100.081V33.6293H90.4478V36.1167H85.7666V11.6125H92.8562V4.28474H97.5034V11.6125Z"/>
</mask>
<path d="M13.2768 4.38558L18.1954 5.96541C17.3134 8.15029 16.228 10.436 14.9729 12.6209V36.0831H10.0882V19.7805C9.34193 20.6881 8.59566 21.4948 7.84939 22.2343C7.34057 20.9906 5.88195 18.2343 5 16.9906C8.29037 13.999 11.445 9.22592 13.2768 4.38558ZM38.1072 23.0747H29.6947V30.4024H37.327V35.0747H17.3134V30.4024H24.6744V23.0747H16.3976V18.3688H24.6744V11.8478H18.0258V7.24272H36.8182V11.8478H29.6947V18.3688H38.1072V23.0747Z" fill="#F99B96"/>
<path d="M54.2877 23.041H58.7313C58.8331 22.2679 58.901 21.4612 58.9688 20.6545C57.9851 20.9906 56.9674 21.3268 55.9159 21.5957C55.7123 21.1923 55.3392 20.6545 54.9661 20.1167C54.7626 21.1251 54.5251 22.0999 54.2877 23.041ZM64.0231 11.5452H60.2578C60.8684 12.2847 61.5807 12.957 62.4288 13.5621C63.0393 12.957 63.5821 12.2847 64.0231 11.5452ZM71.2144 11.5452H69.5522C68.7721 13.2259 67.7883 14.6713 66.635 15.915C68.2972 16.5873 70.1628 17.1251 72.1981 17.4612C71.1465 18.436 69.7558 20.352 69.1113 21.5957C66.6689 20.9906 64.498 20.1167 62.5984 19.0074C61.7843 19.4444 60.9701 19.8478 60.0882 20.2175H63.8874C63.8195 21.1923 63.7178 22.1335 63.616 23.041H70.9769C70.9769 23.041 70.9091 24.2175 70.8412 24.8226C70.3324 30.3688 69.7558 33.0242 68.772 34.0999C67.9579 35.0074 67.1438 35.3099 66.0923 35.478C65.2103 35.6125 63.8195 35.6461 62.2592 35.6125C62.1913 34.2343 61.6825 32.352 60.9362 31.1419C62.0217 31.2427 63.0393 31.2763 63.5821 31.2763C64.057 31.2763 64.3284 31.2091 64.6676 30.873C65.0407 30.5032 65.4138 29.394 65.7191 27.041H62.8019C61.6147 30.9066 59.2062 34.0326 53.8467 36.1839C53.3039 35.0074 52.0488 33.2931 51.0312 32.3856C54.7286 31.0747 56.6282 29.2259 57.6459 27.041H54.2877V23.0747C54.0163 24.1503 53.7449 25.1251 53.4396 25.9654L50.1832 24.4528C50.4545 23.3099 50.7259 21.7973 50.9294 20.2511H49.8779V31.0074C49.8779 33.1251 49.5726 34.4024 48.2157 35.1755C46.8928 35.915 45.2307 36.0158 43.0936 36.0158C42.9579 34.6713 42.3134 32.6545 41.7028 31.3436C42.8562 31.4108 44.2469 31.4108 44.6879 31.4108C45.095 31.3772 45.2307 31.3099 45.2307 30.9066V25.6293C44.1791 27.6797 42.8901 29.5284 41.4315 30.7721C41.0244 29.3604 39.9729 27.3436 39.2266 25.999C40.9905 24.5873 42.5509 22.4696 43.6703 20.2511H39.9389V16.0158H46.7571C44.9593 15.0747 42.7883 14.1335 41.0244 13.4612L44.1113 10.3352C44.8236 10.5705 45.6038 10.8394 46.4179 11.1419C46.8928 10.7049 47.4016 10.2343 47.8426 9.73012H40.4817V5.66289H51.2008L51.9471 5.49482L55.0678 7.41079C53.9824 9.25953 52.2185 11.2427 50.3867 12.8562C51.2687 13.2931 52.0488 13.6965 52.6594 14.0663L50.7938 16.0158H51.9471L52.5916 15.8141L55.5427 16.7553L55.5088 16.9906C56.6282 16.7217 57.6459 16.3856 58.5957 15.9486C57.9851 15.3436 57.4084 14.6713 56.8657 13.9654C56.5265 14.3015 56.1872 14.6041 55.882 14.873C54.9322 14.0999 52.9986 12.7889 51.8792 12.1839C54.5251 10.3015 57.0353 7.24272 58.3921 4.1839L62.9715 5.46121C62.6323 6.16709 62.2592 6.87298 61.8521 7.54524H71.2144V11.5452Z" fill="#F99B96"/>
<path d="M85.0543 18.5032L85.6309 22.9066C84.5115 23.2091 83.3921 23.478 82.2388 23.7805V31.2091C82.2388 33.394 81.8657 34.5705 80.6106 35.2763C79.3216 36.0158 77.5916 36.1503 75.1493 36.1503C75.0136 34.9066 74.403 32.9906 73.8263 31.7469C75.0136 31.8141 76.4043 31.8142 76.8453 31.8142C77.3202 31.8142 77.4898 31.6461 77.4898 31.1755V24.957L74.3691 25.7301L73.1818 21.0578C74.4369 20.8226 75.8955 20.52 77.4898 20.1839V14.8394H73.7246V10.3352H77.4898V4.21751H82.2388V10.3352H85.19V14.8394H82.2388V19.1419L85.0543 18.5032ZM97.5034 28.957H100.081V24.6881H97.5034V28.957ZM90.4478 24.6881V28.957H92.8562V24.6881H90.4478ZM92.8562 16.2511H90.4478V20.1503H92.8562V16.2511ZM100.081 16.2511H97.5034V20.1503H100.081V16.2511ZM97.5034 11.6125H105V35.8814H100.081V33.6293H90.4478V36.1167H85.7666V11.6125H92.8562V4.28474H97.5034V11.6125Z" fill="#F99B96"/>
<path d="M13.2768 4.38558L18.1954 5.96541C17.3134 8.15029 16.228 10.436 14.9729 12.6209V36.0831H10.0882V19.7805C9.34193 20.6881 8.59566 21.4948 7.84939 22.2343C7.34057 20.9906 5.88195 18.2343 5 16.9906C8.29037 13.999 11.445 9.22592 13.2768 4.38558ZM38.1072 23.0747H29.6947V30.4024H37.327V35.0747H17.3134V30.4024H24.6744V23.0747H16.3976V18.3688H24.6744V11.8478H18.0258V7.24272H36.8182V11.8478H29.6947V18.3688H38.1072V23.0747Z" stroke="white" stroke-width="7" mask="url(#path-1-outside-1_6004_298)"/>
<path d="M54.2877 23.041H58.7313C58.8331 22.2679 58.901 21.4612 58.9688 20.6545C57.9851 20.9906 56.9674 21.3268 55.9159 21.5957C55.7123 21.1923 55.3392 20.6545 54.9661 20.1167C54.7626 21.1251 54.5251 22.0999 54.2877 23.041ZM64.0231 11.5452H60.2578C60.8684 12.2847 61.5807 12.957 62.4288 13.5621C63.0393 12.957 63.5821 12.2847 64.0231 11.5452ZM71.2144 11.5452H69.5522C68.7721 13.2259 67.7883 14.6713 66.635 15.915C68.2972 16.5873 70.1628 17.1251 72.1981 17.4612C71.1465 18.436 69.7558 20.352 69.1113 21.5957C66.6689 20.9906 64.498 20.1167 62.5984 19.0074C61.7843 19.4444 60.9701 19.8478 60.0882 20.2175H63.8874C63.8195 21.1923 63.7178 22.1335 63.616 23.041H70.9769C70.9769 23.041 70.9091 24.2175 70.8412 24.8226C70.3324 30.3688 69.7558 33.0242 68.772 34.0999C67.9579 35.0074 67.1438 35.3099 66.0923 35.478C65.2103 35.6125 63.8195 35.6461 62.2592 35.6125C62.1913 34.2343 61.6825 32.352 60.9362 31.1419C62.0217 31.2427 63.0393 31.2763 63.5821 31.2763C64.057 31.2763 64.3284 31.2091 64.6676 30.873C65.0407 30.5032 65.4138 29.394 65.7191 27.041H62.8019C61.6147 30.9066 59.2062 34.0326 53.8467 36.1839C53.3039 35.0074 52.0488 33.2931 51.0312 32.3856C54.7286 31.0747 56.6282 29.2259 57.6459 27.041H54.2877V23.0747C54.0163 24.1503 53.7449 25.1251 53.4396 25.9654L50.1832 24.4528C50.4545 23.3099 50.7259 21.7973 50.9294 20.2511H49.8779V31.0074C49.8779 33.1251 49.5726 34.4024 48.2157 35.1755C46.8928 35.915 45.2307 36.0158 43.0936 36.0158C42.9579 34.6713 42.3134 32.6545 41.7028 31.3436C42.8562 31.4108 44.2469 31.4108 44.6879 31.4108C45.095 31.3772 45.2307 31.3099 45.2307 30.9066V25.6293C44.1791 27.6797 42.8901 29.5284 41.4315 30.7721C41.0244 29.3604 39.9729 27.3436 39.2266 25.999C40.9905 24.5873 42.5509 22.4696 43.6703 20.2511H39.9389V16.0158H46.7571C44.9593 15.0747 42.7883 14.1335 41.0244 13.4612L44.1113 10.3352C44.8236 10.5705 45.6038 10.8394 46.4179 11.1419C46.8928 10.7049 47.4016 10.2343 47.8426 9.73012H40.4817V5.66289H51.2008L51.9471 5.49482L55.0678 7.41079C53.9824 9.25953 52.2185 11.2427 50.3867 12.8562C51.2687 13.2931 52.0488 13.6965 52.6594 14.0663L50.7938 16.0158H51.9471L52.5916 15.8141L55.5427 16.7553L55.5088 16.9906C56.6282 16.7217 57.6459 16.3856 58.5957 15.9486C57.9851 15.3436 57.4084 14.6713 56.8657 13.9654C56.5265 14.3015 56.1872 14.6041 55.882 14.873C54.9322 14.0999 52.9986 12.7889 51.8792 12.1839C54.5251 10.3015 57.0353 7.24272 58.3921 4.1839L62.9715 5.46121C62.6323 6.16709 62.2592 6.87298 61.8521 7.54524H71.2144V11.5452Z" stroke="white" stroke-width="7" mask="url(#path-1-outside-1_6004_298)"/>
<path d="M85.0543 18.5032L85.6309 22.9066C84.5115 23.2091 83.3921 23.478 82.2388 23.7805V31.2091C82.2388 33.394 81.8657 34.5705 80.6106 35.2763C79.3216 36.0158 77.5916 36.1503 75.1493 36.1503C75.0136 34.9066 74.403 32.9906 73.8263 31.7469C75.0136 31.8141 76.4043 31.8142 76.8453 31.8142C77.3202 31.8142 77.4898 31.6461 77.4898 31.1755V24.957L74.3691 25.7301L73.1818 21.0578C74.4369 20.8226 75.8955 20.52 77.4898 20.1839V14.8394H73.7246V10.3352H77.4898V4.21751H82.2388V10.3352H85.19V14.8394H82.2388V19.1419L85.0543 18.5032ZM97.5034 28.957H100.081V24.6881H97.5034V28.957ZM90.4478 24.6881V28.957H92.8562V24.6881H90.4478ZM92.8562 16.2511H90.4478V20.1503H92.8562V16.2511ZM100.081 16.2511H97.5034V20.1503H100.081V16.2511ZM97.5034 11.6125H105V35.8814H100.081V33.6293H90.4478V36.1167H85.7666V11.6125H92.8562V4.28474H97.5034V11.6125Z" stroke="white" stroke-width="7" mask="url(#path-1-outside-1_6004_298)"/>
</svg>
