<svg width="44" height="17" viewBox="0 0 44 17" fill="none" xmlns="http://www.w3.org/2000/svg">
<mask id="path-1-outside-1_4322_2523" maskUnits="userSpaceOnUse" x="0" y="-0.912598" width="44" height="18" fill="black">
<rect fill="white" y="-0.912598" width="44" height="18"/>
<path d="M5.60254 9.01441H9.41154C9.49811 8.37207 9.58468 7.75893 9.65682 7.18959H6.02096C5.87667 7.81733 5.74682 8.43047 5.60254 9.01441ZM11.0419 12.6057H14.3171V14.664H1V12.6057H8.81999C8.92099 12.0801 9.00756 11.54 9.10855 10.9852H2.73136C3.33734 9.01441 4.04431 6.05091 4.49158 3.56915H1.41841V1.53996H13.8987V3.56915H6.78564C6.68464 4.1093 6.56922 4.66404 6.4538 5.21879H10.1041L10.4648 5.1458L12.0807 5.32098C11.8499 7.52536 11.4315 10.2261 11.0419 12.6057Z"/>
<path d="M19.8719 11.9487V12.4451L22.1659 12.2699C22.2381 12.1677 22.3102 12.0655 22.3823 11.9487H19.8719ZM17.2604 8.81003H17.9818V8.37207H17.2604V8.81003ZM20.5788 8.81003V8.37207H19.8719V8.81003H20.5788ZM17.2604 6.73704V7.17499H17.9818V6.73704H17.2604ZM20.5788 6.73704H19.8719V7.17499H20.5788V6.73704ZM25.7152 4.32828H28.572C28.572 4.32828 28.5575 4.98521 28.5575 5.23339C28.4421 11.1458 28.3411 13.3356 27.8794 14.0217C27.5187 14.5765 27.158 14.7516 26.653 14.8684C26.1913 14.9706 25.5277 14.9706 24.8351 14.956C24.7918 14.3721 24.561 13.5108 24.2291 12.9414C24.8063 12.9998 25.2968 12.9998 25.5854 12.9998C25.8018 12.9998 25.9316 12.9414 26.0759 12.737C26.35 12.3575 26.4655 10.6494 26.5376 6.26988H25.6575C25.4555 10.2115 24.8063 13.1458 22.4401 15.0874C22.2525 14.7516 21.8774 14.2991 21.5167 13.9341C19.3236 14.1531 17.0728 14.3575 15.3847 14.5035L15.1539 12.7516C15.9474 12.7078 16.9141 12.6494 17.9818 12.5765V11.9487H15.5579V10.4743H17.9818V10.0947H15.6156V5.45237H17.9818V5.0874H15.2693V3.58375H17.9818V3.23339C17.2027 3.27718 16.4236 3.30638 15.6877 3.32098C15.63 2.89762 15.428 2.24069 15.2405 1.83193C17.4047 1.72974 19.843 1.48156 21.4878 1.1312L22.3679 2.69324C21.6177 2.85383 20.7664 2.97061 19.8719 3.0728V3.58375H22.4833V5.0874H19.8719V5.45237H22.2958V10.0947H19.8719V10.4743H22.3823V11.9487C23.2913 10.4889 23.5799 8.62025 23.6809 6.26988H22.541V4.32828H23.7241V1.36477H25.7296C25.7296 2.40127 25.7296 3.39397 25.7152 4.32828Z"/>
<path d="M34.5163 7.29178L34.7616 9.20419C34.2855 9.33558 33.8093 9.45236 33.3188 9.58375V12.81C33.3188 13.7589 33.1601 14.2699 32.6262 14.5765C32.078 14.8976 31.3421 14.956 30.3033 14.956C30.2456 14.4159 29.9859 13.5838 29.7406 13.0436C30.2456 13.0728 30.8372 13.0728 31.0247 13.0728C31.2267 13.0728 31.2989 12.9998 31.2989 12.7954V10.0947L29.9715 10.4305L29.4665 8.40127C30.0003 8.29908 30.6207 8.16769 31.2989 8.02171V5.70054H29.6974V3.74434H31.2989V1.0874H33.3188V3.74434H34.574V5.70054H33.3188V7.56915L34.5163 7.29178ZM39.8114 11.8319H40.9079V9.97791H39.8114V11.8319ZM36.8104 9.97791V11.8319H37.8348V9.97791H36.8104ZM37.8348 6.31368H36.8104V8.00711H37.8348V6.31368ZM40.9079 6.31368H39.8114V8.00711H40.9079V6.31368ZM39.8114 4.29908H43V14.8392H40.9079V13.8611H36.8104V14.9414H34.8193V4.29908H37.8348V1.1166H39.8114V4.29908Z"/>
</mask>
<path d="M5.60254 9.01441H9.41154C9.49811 8.37207 9.58468 7.75893 9.65682 7.18959H6.02096C5.87667 7.81733 5.74682 8.43047 5.60254 9.01441ZM11.0419 12.6057H14.3171V14.664H1V12.6057H8.81999C8.92099 12.0801 9.00756 11.54 9.10855 10.9852H2.73136C3.33734 9.01441 4.04431 6.05091 4.49158 3.56915H1.41841V1.53996H13.8987V3.56915H6.78564C6.68464 4.1093 6.56922 4.66404 6.4538 5.21879H10.1041L10.4648 5.1458L12.0807 5.32098C11.8499 7.52536 11.4315 10.2261 11.0419 12.6057Z" fill="#FF8CCF"/>
<path d="M19.8719 11.9487V12.4451L22.1659 12.2699C22.2381 12.1677 22.3102 12.0655 22.3823 11.9487H19.8719ZM17.2604 8.81003H17.9818V8.37207H17.2604V8.81003ZM20.5788 8.81003V8.37207H19.8719V8.81003H20.5788ZM17.2604 6.73704V7.17499H17.9818V6.73704H17.2604ZM20.5788 6.73704H19.8719V7.17499H20.5788V6.73704ZM25.7152 4.32828H28.572C28.572 4.32828 28.5575 4.98521 28.5575 5.23339C28.4421 11.1458 28.3411 13.3356 27.8794 14.0217C27.5187 14.5765 27.158 14.7516 26.653 14.8684C26.1913 14.9706 25.5277 14.9706 24.8351 14.956C24.7918 14.3721 24.561 13.5108 24.2291 12.9414C24.8063 12.9998 25.2968 12.9998 25.5854 12.9998C25.8018 12.9998 25.9316 12.9414 26.0759 12.737C26.35 12.3575 26.4655 10.6494 26.5376 6.26988H25.6575C25.4555 10.2115 24.8063 13.1458 22.4401 15.0874C22.2525 14.7516 21.8774 14.2991 21.5167 13.9341C19.3236 14.1531 17.0728 14.3575 15.3847 14.5035L15.1539 12.7516C15.9474 12.7078 16.9141 12.6494 17.9818 12.5765V11.9487H15.5579V10.4743H17.9818V10.0947H15.6156V5.45237H17.9818V5.0874H15.2693V3.58375H17.9818V3.23339C17.2027 3.27718 16.4236 3.30638 15.6877 3.32098C15.63 2.89762 15.428 2.24069 15.2405 1.83193C17.4047 1.72974 19.843 1.48156 21.4878 1.1312L22.3679 2.69324C21.6177 2.85383 20.7664 2.97061 19.8719 3.0728V3.58375H22.4833V5.0874H19.8719V5.45237H22.2958V10.0947H19.8719V10.4743H22.3823V11.9487C23.2913 10.4889 23.5799 8.62025 23.6809 6.26988H22.541V4.32828H23.7241V1.36477H25.7296C25.7296 2.40127 25.7296 3.39397 25.7152 4.32828Z" fill="#FF8CCF"/>
<path d="M34.5163 7.29178L34.7616 9.20419C34.2855 9.33558 33.8093 9.45236 33.3188 9.58375V12.81C33.3188 13.7589 33.1601 14.2699 32.6262 14.5765C32.078 14.8976 31.3421 14.956 30.3033 14.956C30.2456 14.4159 29.9859 13.5838 29.7406 13.0436C30.2456 13.0728 30.8372 13.0728 31.0247 13.0728C31.2267 13.0728 31.2989 12.9998 31.2989 12.7954V10.0947L29.9715 10.4305L29.4665 8.40127C30.0003 8.29908 30.6207 8.16769 31.2989 8.02171V5.70054H29.6974V3.74434H31.2989V1.0874H33.3188V3.74434H34.574V5.70054H33.3188V7.56915L34.5163 7.29178ZM39.8114 11.8319H40.9079V9.97791H39.8114V11.8319ZM36.8104 9.97791V11.8319H37.8348V9.97791H36.8104ZM37.8348 6.31368H36.8104V8.00711H37.8348V6.31368ZM40.9079 6.31368H39.8114V8.00711H40.9079V6.31368ZM39.8114 4.29908H43V14.8392H40.9079V13.8611H36.8104V14.9414H34.8193V4.29908H37.8348V1.1166H39.8114V4.29908Z" fill="#FF8CCF"/>
<path d="M5.60254 9.01441L4.63174 8.77454L4.32539 10.0144H5.60254V9.01441ZM9.41154 9.01441V10.0144H10.2858L10.4026 9.14797L9.41154 9.01441ZM9.65682 7.18959L10.6489 7.31529L10.7915 6.18959H9.65682V7.18959ZM6.02096 7.18959V6.18959H5.22472L5.04637 6.96559L6.02096 7.18959ZM11.0419 12.6057L10.055 12.4441L9.86489 13.6057H11.0419V12.6057ZM14.3171 12.6057H15.3171V11.6057H14.3171V12.6057ZM14.3171 14.664V15.664H15.3171V14.664H14.3171ZM1 14.664H0V15.664H1V14.664ZM1 12.6057V11.6057H0V12.6057H1ZM8.81999 12.6057V13.6057H9.64612L9.80202 12.7944L8.81999 12.6057ZM9.10855 10.9852L10.0924 11.1643L10.307 9.98521H9.10855V10.9852ZM2.73136 10.9852L1.77553 10.6913L1.37768 11.9852H2.73136V10.9852ZM4.49158 3.56915L5.47573 3.74652L5.68792 2.56915H4.49158V3.56915ZM1.41841 3.56915H0.418413V4.56915H1.41841V3.56915ZM1.41841 1.53996V0.539956H0.418413V1.53996H1.41841ZM13.8987 1.53996H14.8987V0.539956H13.8987V1.53996ZM13.8987 3.56915V4.56915H14.8987V3.56915H13.8987ZM6.78564 3.56915V2.56915H5.95529L5.80268 3.38536L6.78564 3.56915ZM6.4538 5.21879L5.47476 5.01508L5.22431 6.21879H6.4538V5.21879ZM10.1041 5.21879V6.21879H10.2043L10.3024 6.19892L10.1041 5.21879ZM10.4648 5.1458L10.5726 4.15162L10.4184 4.13491L10.2664 4.16566L10.4648 5.1458ZM12.0807 5.32098L13.0753 5.42513L13.1791 4.43419L12.1885 4.3268L12.0807 5.32098ZM19.8719 11.9487V10.9487H18.8719V11.9487H19.8719ZM19.8719 12.4451H18.8719V13.5243L19.948 13.4422L19.8719 12.4451ZM22.1659 12.2699L22.2421 13.267L22.7114 13.2311L22.9829 12.8466L22.1659 12.2699ZM17.2604 8.81003H16.2604V9.81003H17.2604V8.81003ZM17.9818 8.81003V9.81003H18.9818V8.81003H17.9818ZM17.9818 8.37207H18.9818V7.37207H17.9818V8.37207ZM17.2604 8.37207V7.37207H16.2604V8.37207H17.2604ZM20.5788 8.81003V9.81003H21.5788V8.81003H20.5788ZM20.5788 8.37207H21.5788V7.37207H20.5788V8.37207ZM19.8719 8.37207V7.37207H18.8719V8.37207H19.8719ZM19.8719 8.81003H18.8719V9.81003H19.8719V8.81003ZM17.2604 6.73704V5.73704H16.2604V6.73704H17.2604ZM17.2604 7.17499H16.2604V8.17499H17.2604V7.17499ZM17.9818 7.17499V8.17499H18.9818V7.17499H17.9818ZM17.9818 6.73704H18.9818V5.73704H17.9818V6.73704ZM20.5788 6.73704H21.5788V5.73704H20.5788V6.73704ZM19.8719 6.73704V5.73704H18.8719V6.73704H19.8719ZM19.8719 7.17499H18.8719V8.17499H19.8719V7.17499ZM20.5788 7.17499V8.17499H21.5788V7.17499H20.5788ZM25.7152 4.32828L24.7153 4.31284L24.6997 5.32828H25.7152V4.32828ZM28.572 4.32828L29.5717 4.35024L29.5942 3.32828H28.572V4.32828ZM28.5575 5.23339L29.5573 5.25291L29.5575 5.24315V5.23339H28.5575ZM27.8794 14.0217L27.0498 13.4634L27.0454 13.47L27.0411 13.4766L27.8794 14.0217ZM26.653 14.8684L26.8692 15.8448L26.8784 15.8427L26.653 14.8684ZM24.8351 14.956L23.8378 15.0299L23.9051 15.9366L24.814 15.9558L24.8351 14.956ZM24.2291 12.9414L24.3298 11.9465L22.3766 11.7489L23.3652 13.445L24.2291 12.9414ZM26.0759 12.737L25.2652 12.1515L25.259 12.1603L26.0759 12.737ZM26.5376 6.26988L27.5375 6.28635L27.5542 5.26988H26.5376V6.26988ZM25.6575 6.26988V5.26988H24.7074L24.6588 6.21871L25.6575 6.26988ZM22.4401 15.0874L21.567 15.5751L22.1501 16.6189L23.0744 15.8605L22.4401 15.0874ZM21.5167 13.9341L22.2279 13.2312L21.8923 12.8916L21.4173 12.9391L21.5167 13.9341ZM15.3847 14.5035L14.3933 14.6341L14.5182 15.5821L15.4709 15.4997L15.3847 14.5035ZM15.1539 12.7516L15.0988 11.7532L14.0215 11.8126L14.1625 12.8823L15.1539 12.7516ZM17.9818 12.5765L18.05 13.5741L18.9818 13.5104V12.5765H17.9818ZM17.9818 11.9487H18.9818V10.9487H17.9818V11.9487ZM15.5579 11.9487H14.5579V12.9487H15.5579V11.9487ZM15.5579 10.4743V9.47426H14.5579V10.4743H15.5579ZM17.9818 10.4743V11.4743H18.9818V10.4743H17.9818ZM17.9818 10.0947H18.9818V9.0947H17.9818V10.0947ZM15.6156 10.0947H14.6156V11.0947H15.6156V10.0947ZM15.6156 5.45237V4.45237H14.6156V5.45237H15.6156ZM17.9818 5.45237V6.45237H18.9818V5.45237H17.9818ZM17.9818 5.0874H18.9818V4.0874H17.9818V5.0874ZM15.2693 5.0874H14.2693V6.0874H15.2693V5.0874ZM15.2693 3.58375V2.58375H14.2693V3.58375H15.2693ZM17.9818 3.58375V4.58375H18.9818V3.58375H17.9818ZM17.9818 3.23339H18.9818V2.1756L17.9257 2.23496L17.9818 3.23339ZM15.6877 3.32098L14.6969 3.45605L14.8172 4.33845L15.7076 4.32078L15.6877 3.32098ZM15.2405 1.83193L15.1933 0.833041L13.7139 0.902895L14.3316 2.24898L15.2405 1.83193ZM21.4878 1.1312L22.359 0.640318L21.9983 2.53916e-05L21.2795 0.153141L21.4878 1.1312ZM22.3679 2.69324L22.5772 3.67109L23.9064 3.3866L23.2391 2.20236L22.3679 2.69324ZM19.8719 3.0728L19.7584 2.07927L18.8719 2.18054V3.0728H19.8719ZM19.8719 3.58375H18.8719V4.58375H19.8719V3.58375ZM22.4833 3.58375H23.4833V2.58375H22.4833V3.58375ZM22.4833 5.0874V6.0874H23.4833V5.0874H22.4833ZM19.8719 5.0874V4.0874H18.8719V5.0874H19.8719ZM19.8719 5.45237H18.8719V6.45237H19.8719V5.45237ZM22.2958 5.45237H23.2958V4.45237H22.2958V5.45237ZM22.2958 10.0947V11.0947H23.2958V10.0947H22.2958ZM19.8719 10.0947V9.0947H18.8719V10.0947H19.8719ZM19.8719 10.4743H18.8719V11.4743H19.8719V10.4743ZM22.3823 10.4743H23.3823V9.47426H22.3823V10.4743ZM23.6809 6.26988L24.6799 6.31281L24.7248 5.26988H23.6809V6.26988ZM22.541 6.26988H21.541V7.26988H22.541V6.26988ZM22.541 4.32828V3.32828H21.541V4.32828H22.541ZM23.7241 4.32828V5.32828H24.7241V4.32828H23.7241ZM23.7241 1.36477V0.364775H22.7241V1.36477H23.7241ZM25.7296 1.36477H26.7296V0.364775H25.7296V1.36477ZM34.5163 7.29178L35.5082 7.16457L35.3676 6.06814L34.2907 6.31757L34.5163 7.29178ZM34.7616 9.20419L35.0276 10.1682L35.8638 9.9374L35.7535 9.07698L34.7616 9.20419ZM33.3188 9.58375L33.0601 8.6178L32.3188 8.81634V9.58375H33.3188ZM32.6262 14.5765L32.1282 13.7092L32.1208 13.7136L32.6262 14.5765ZM30.3033 14.956L29.309 15.0623L29.4045 15.956H30.3033V14.956ZM29.7406 13.0436L29.7984 12.0453L28.1456 11.9497L28.8301 13.4571L29.7406 13.0436ZM31.2989 10.0947H32.2989V8.81025L31.0536 9.12524L31.2989 10.0947ZM29.9715 10.4305L29.0011 10.672L29.2435 11.6461L30.2167 11.3999L29.9715 10.4305ZM29.4665 8.40127L29.2785 7.4191L28.241 7.61771L28.4961 8.64276L29.4665 8.40127ZM31.2989 8.02171L31.5093 8.99931L32.2989 8.82934V8.02171H31.2989ZM31.2989 5.70054H32.2989V4.70054H31.2989V5.70054ZM29.6974 5.70054H28.6974V6.70054H29.6974V5.70054ZM29.6974 3.74434V2.74434H28.6974V3.74434H29.6974ZM31.2989 3.74434V4.74434H32.2989V3.74434H31.2989ZM31.2989 1.0874V0.0874023H30.2989V1.0874H31.2989ZM33.3188 1.0874H34.3188V0.0874023H33.3188V1.0874ZM33.3188 3.74434H32.3188V4.74434H33.3188V3.74434ZM34.574 3.74434H35.574V2.74434H34.574V3.74434ZM34.574 5.70054V6.70054H35.574V5.70054H34.574ZM33.3188 5.70054V4.70054H32.3188V5.70054H33.3188ZM33.3188 7.56915H32.3188V8.82725L33.5444 8.54336L33.3188 7.56915ZM39.8114 11.8319H38.8114V12.8319H39.8114V11.8319ZM40.9079 11.8319V12.8319H41.9079V11.8319H40.9079ZM40.9079 9.97791H41.9079V8.97791H40.9079V9.97791ZM39.8114 9.97791V8.97791H38.8114V9.97791H39.8114ZM36.8104 9.97791V8.97791H35.8104V9.97791H36.8104ZM36.8104 11.8319H35.8104V12.8319H36.8104V11.8319ZM37.8348 11.8319V12.8319H38.8348V11.8319H37.8348ZM37.8348 9.97791H38.8348V8.97791H37.8348V9.97791ZM37.8348 6.31368H38.8348V5.31368H37.8348V6.31368ZM36.8104 6.31368V5.31368H35.8104V6.31368H36.8104ZM36.8104 8.00711H35.8104V9.00711H36.8104V8.00711ZM37.8348 8.00711V9.00711H38.8348V8.00711H37.8348ZM40.9079 6.31368H41.9079V5.31368H40.9079V6.31368ZM39.8114 6.31368V5.31368H38.8114V6.31368H39.8114ZM39.8114 8.00711H38.8114V9.00711H39.8114V8.00711ZM40.9079 8.00711V9.00711H41.9079V8.00711H40.9079ZM39.8114 4.29908H38.8114V5.29908H39.8114V4.29908ZM43 4.29908H44V3.29908H43V4.29908ZM43 14.8392V15.8392H44V14.8392H43ZM40.9079 14.8392H39.9079V15.8392H40.9079V14.8392ZM40.9079 13.8611H41.9079V12.8611H40.9079V13.8611ZM36.8104 13.8611V12.8611H35.8104V13.8611H36.8104ZM36.8104 14.9414V15.9414H37.8104V14.9414H36.8104ZM34.8193 14.9414H33.8193V15.9414H34.8193V14.9414ZM34.8193 4.29908V3.29908H33.8193V4.29908H34.8193ZM37.8348 4.29908V5.29908H38.8348V4.29908H37.8348ZM37.8348 1.1166V0.116599H36.8348V1.1166H37.8348ZM39.8114 1.1166H40.8114V0.116599H39.8114V1.1166ZM5.60254 9.01441V10.0144H9.41154V9.01441V8.01441H5.60254V9.01441ZM9.41154 9.01441L10.4026 9.14797C10.4879 8.51466 10.5761 7.88959 10.6489 7.31529L9.65682 7.18959L8.66475 7.06389C8.59324 7.62828 8.50829 8.22949 8.4205 8.88085L9.41154 9.01441ZM9.65682 7.18959V6.18959H6.02096V7.18959V8.18959H9.65682V7.18959ZM6.02096 7.18959L5.04637 6.96559C4.89643 7.61794 4.77384 8.1994 4.63174 8.77454L5.60254 9.01441L6.57335 9.25428C6.7198 8.66154 6.85692 8.01672 6.99554 7.41359L6.02096 7.18959ZM11.0419 12.6057V13.6057H14.3171V12.6057V11.6057H11.0419V12.6057ZM14.3171 12.6057H13.3171V14.664H14.3171H15.3171V12.6057H14.3171ZM14.3171 14.664V13.664H1V14.664V15.664H14.3171V14.664ZM1 14.664H2V12.6057H1H0V14.664H1ZM1 12.6057V13.6057H8.81999V12.6057V11.6057H1V12.6057ZM8.81999 12.6057L9.80202 12.7944C9.90253 12.2714 9.99809 11.6822 10.0924 11.1643L9.10855 10.9852L8.12472 10.8061C8.01702 11.3977 7.93945 11.8888 7.83796 12.4169L8.81999 12.6057ZM9.10855 10.9852V9.98521H2.73136V10.9852V11.9852H9.10855V10.9852ZM2.73136 10.9852L3.6872 11.2791C4.3068 9.26402 5.02258 6.26089 5.47573 3.74652L4.49158 3.56915L3.50744 3.39179C3.06605 5.84092 2.36789 8.7648 1.77553 10.6913L2.73136 10.9852ZM4.49158 3.56915V2.56915H1.41841V3.56915V4.56915H4.49158V3.56915ZM1.41841 3.56915H2.41841V1.53996H1.41841H0.418413V3.56915H1.41841ZM1.41841 1.53996V2.53996H13.8987V1.53996V0.539956H1.41841V1.53996ZM13.8987 1.53996H12.8987V3.56915H13.8987H14.8987V1.53996H13.8987ZM13.8987 3.56915V2.56915H6.78564V3.56915V4.56915H13.8987V3.56915ZM6.78564 3.56915L5.80268 3.38536C5.70387 3.91379 5.59058 4.45846 5.47476 5.01508L6.4538 5.21879L7.43283 5.42249C7.54786 4.86963 7.66542 4.30481 7.76861 3.75295L6.78564 3.56915ZM6.4538 5.21879V6.21879H10.1041V5.21879V4.21879H6.4538V5.21879ZM10.1041 5.21879L10.3024 6.19892L10.6631 6.12593L10.4648 5.1458L10.2664 4.16566L9.90574 4.23866L10.1041 5.21879ZM10.4648 5.1458L10.357 6.13997L11.973 6.31515L12.0807 5.32098L12.1885 4.3268L10.5726 4.15162L10.4648 5.1458ZM12.0807 5.32098L11.0862 5.21683C10.8586 7.38969 10.4445 10.0652 10.055 12.4441L11.0419 12.6057L12.0288 12.7672C12.4184 10.3869 12.8411 7.66103 13.0753 5.42513L12.0807 5.32098ZM19.8719 11.9487H18.8719V12.4451H19.8719H20.8719V11.9487H19.8719ZM19.8719 12.4451L19.948 13.4422L22.2421 13.267L22.1659 12.2699L22.0898 11.2728L19.7957 11.448L19.8719 12.4451ZM22.1659 12.2699L22.9829 12.8466C23.0533 12.7468 23.1426 12.6209 23.2331 12.4742L22.3823 11.9487L21.5316 11.4232C21.4778 11.5102 21.4228 11.5886 21.349 11.6932L22.1659 12.2699ZM22.3823 11.9487V10.9487H19.8719V11.9487V12.9487H22.3823V11.9487ZM17.2604 8.81003V9.81003H17.9818V8.81003V7.81003H17.2604V8.81003ZM17.9818 8.81003H18.9818V8.37207H17.9818H16.9818V8.81003H17.9818ZM17.9818 8.37207V7.37207H17.2604V8.37207V9.37207H17.9818V8.37207ZM17.2604 8.37207H16.2604V8.81003H17.2604H18.2604V8.37207H17.2604ZM20.5788 8.81003H21.5788V8.37207H20.5788H19.5788V8.81003H20.5788ZM20.5788 8.37207V7.37207H19.8719V8.37207V9.37207H20.5788V8.37207ZM19.8719 8.37207H18.8719V8.81003H19.8719H20.8719V8.37207H19.8719ZM19.8719 8.81003V9.81003H20.5788V8.81003V7.81003H19.8719V8.81003ZM17.2604 6.73704H16.2604V7.17499H17.2604H18.2604V6.73704H17.2604ZM17.2604 7.17499V8.17499H17.9818V7.17499V6.17499H17.2604V7.17499ZM17.9818 7.17499H18.9818V6.73704H17.9818H16.9818V7.17499H17.9818ZM17.9818 6.73704V5.73704H17.2604V6.73704V7.73704H17.9818V6.73704ZM20.5788 6.73704V5.73704H19.8719V6.73704V7.73704H20.5788V6.73704ZM19.8719 6.73704H18.8719V7.17499H19.8719H20.8719V6.73704H19.8719ZM19.8719 7.17499V8.17499H20.5788V7.17499V6.17499H19.8719V7.17499ZM20.5788 7.17499H21.5788V6.73704H20.5788H19.5788V7.17499H20.5788ZM25.7152 4.32828V5.32828H28.572V4.32828V3.32828H25.7152V4.32828ZM28.572 4.32828C27.5722 4.30632 27.5722 4.30633 27.5722 4.30633C27.5722 4.30634 27.5722 4.30635 27.5722 4.30637C27.5722 4.30639 27.5722 4.30643 27.5722 4.30647C27.5722 4.30656 27.5722 4.30669 27.5722 4.30686C27.5722 4.3072 27.5722 4.3077 27.5722 4.30834C27.5721 4.30964 27.5721 4.31155 27.572 4.31403C27.5719 4.319 27.5718 4.32628 27.5716 4.33561C27.5712 4.35427 27.5706 4.38114 27.5699 4.41414C27.5686 4.48011 27.5667 4.57074 27.5649 4.6693C27.5614 4.86268 27.5575 5.09842 27.5575 5.23339H28.5575H29.5575C29.5575 5.12018 29.5609 4.90336 29.5646 4.70624C29.5664 4.60954 29.5682 4.52043 29.5695 4.45546C29.5702 4.423 29.5707 4.39661 29.5711 4.37837C29.5713 4.36926 29.5715 4.36218 29.5716 4.3574C29.5716 4.35501 29.5717 4.3532 29.5717 4.352C29.5717 4.35139 29.5717 4.35094 29.5717 4.35065C29.5717 4.3505 29.5717 4.35039 29.5717 4.35032C29.5717 4.35029 29.5717 4.35027 29.5717 4.35025C29.5717 4.35024 29.5717 4.35024 29.5717 4.35024C29.5717 4.35024 29.5717 4.35024 28.572 4.32828ZM28.5575 5.23339L27.5577 5.21387C27.4999 8.17626 27.4461 10.1748 27.3508 11.5166C27.3032 12.1881 27.2471 12.6647 27.1821 13.0007C27.1499 13.1671 27.1184 13.284 27.0908 13.3642C27.0628 13.4457 27.0453 13.4701 27.0498 13.4634L27.8794 14.0217L28.7091 14.58C28.9384 14.2392 29.0619 13.814 29.1457 13.3803C29.2332 12.928 29.2961 12.359 29.3458 11.6582C29.4454 10.2555 29.4998 8.20293 29.5573 5.25291L28.5575 5.23339ZM27.8794 14.0217L27.0411 13.4766C26.9201 13.6626 26.8341 13.733 26.779 13.7685C26.7179 13.8078 26.627 13.848 26.4277 13.8941L26.653 14.8684L26.8784 15.8427C27.184 15.772 27.526 15.6662 27.8617 15.4501C28.2033 15.2301 28.4781 14.9355 28.7178 14.5668L27.8794 14.0217ZM26.653 14.8684L26.4369 13.8921C26.114 13.9635 25.5759 13.9714 24.8562 13.9562L24.8351 14.956L24.814 15.9558C25.4794 15.9698 26.2687 15.9777 26.8691 15.8448L26.653 14.8684ZM24.8351 14.956L25.8324 14.8821C25.7797 14.1717 25.5131 13.1585 25.0931 12.4379L24.2291 12.9414L23.3652 13.445C23.6088 13.863 23.8039 14.5724 23.8378 15.0299L24.8351 14.956ZM24.2291 12.9414L24.1285 13.9363C24.7594 14.0002 25.293 13.9998 25.5854 13.9998V12.9998V11.9998C25.3006 11.9998 24.8531 11.9994 24.3298 11.9465L24.2291 12.9414ZM25.5854 12.9998V13.9998C25.7813 13.9998 26.0451 13.9741 26.3174 13.8331C26.5873 13.6934 26.7674 13.4914 26.8929 13.3138L26.0759 12.737L25.259 12.1603C25.2401 12.187 25.2832 12.1164 25.398 12.057C25.5152 11.9963 25.6059 11.9998 25.5854 11.9998V12.9998ZM26.0759 12.737L26.8866 13.3225C27.1004 13.0264 27.1867 12.6444 27.2379 12.3586C27.2977 12.0249 27.343 11.5979 27.38 11.0739C27.4543 10.0222 27.5014 8.47611 27.5375 6.28635L26.5376 6.26988L25.5378 6.25341C25.5017 8.44322 25.455 9.94091 25.385 10.933C25.3498 11.4309 25.3104 11.7758 25.2692 12.006C25.2194 12.284 25.1885 12.2579 25.2652 12.1515L26.0759 12.737ZM26.5376 6.26988V5.26988H25.6575V6.26988V7.26988H26.5376V6.26988ZM25.6575 6.26988L24.6588 6.21871C24.4582 10.1328 23.8148 12.6658 21.8057 14.3143L22.4401 15.0874L23.0744 15.8605C25.7977 13.6258 26.4528 10.2902 26.6562 6.32106L25.6575 6.26988ZM22.4401 15.0874L23.3131 14.5997C23.0613 14.149 22.614 13.6219 22.2279 13.2312L21.5167 13.9341L20.8054 14.6371C21.1407 14.9763 21.4437 15.3543 21.567 15.5751L22.4401 15.0874ZM21.5167 13.9341L21.4173 12.9391C19.2297 13.1575 16.9835 13.3615 15.2986 13.5072L15.3847 14.5035L15.4709 15.4997C17.1622 15.3535 19.4175 15.1487 21.616 14.9292L21.5167 13.9341ZM15.3847 14.5035L16.3762 14.3728L16.1453 12.621L15.1539 12.7516L14.1625 12.8823L14.3933 14.6341L15.3847 14.5035ZM15.1539 12.7516L15.209 13.7501C16.0066 13.7061 16.9777 13.6474 18.05 13.5741L17.9818 12.5765L17.9136 11.5788C16.8506 11.6515 15.8883 11.7096 15.0988 11.7532L15.1539 12.7516ZM17.9818 12.5765H18.9818V11.9487H17.9818H16.9818V12.5765H17.9818ZM17.9818 11.9487V10.9487H15.5579V11.9487V12.9487H17.9818V11.9487ZM15.5579 11.9487H16.5579V10.4743H15.5579H14.5579V11.9487H15.5579ZM15.5579 10.4743V11.4743H17.9818V10.4743V9.47426H15.5579V10.4743ZM17.9818 10.4743H18.9818V10.0947H17.9818H16.9818V10.4743H17.9818ZM17.9818 10.0947V9.0947H15.6156V10.0947V11.0947H17.9818V10.0947ZM15.6156 10.0947H16.6156V5.45237H15.6156H14.6156V10.0947H15.6156ZM15.6156 5.45237V6.45237H17.9818V5.45237V4.45237H15.6156V5.45237ZM17.9818 5.45237H18.9818V5.0874H17.9818H16.9818V5.45237H17.9818ZM17.9818 5.0874V4.0874H15.2693V5.0874V6.0874H17.9818V5.0874ZM15.2693 5.0874H16.2693V3.58375H15.2693H14.2693V5.0874H15.2693ZM15.2693 3.58375V4.58375H17.9818V3.58375V2.58375H15.2693V3.58375ZM17.9818 3.58375H18.9818V3.23339H17.9818H16.9818V3.58375H17.9818ZM17.9818 3.23339L17.9257 2.23496C17.1587 2.27808 16.3916 2.30682 15.6679 2.32118L15.6877 3.32098L15.7076 4.32078C16.4555 4.30594 17.2467 4.27629 18.0379 4.23181L17.9818 3.23339ZM15.6877 3.32098L16.6786 3.18591C16.6056 2.65095 16.3716 1.89918 16.1493 1.41488L15.2405 1.83193L14.3316 2.24898C14.4845 2.5822 14.6544 3.14429 14.6969 3.45605L15.6877 3.32098ZM15.2405 1.83193L15.2876 2.83081C17.4765 2.72746 19.9756 2.47575 21.6961 2.10925L21.4878 1.1312L21.2795 0.153141C19.7104 0.487371 17.3328 0.732016 15.1933 0.833041L15.2405 1.83193ZM21.4878 1.1312L20.6166 1.62208L21.4967 3.18412L22.3679 2.69324L23.2391 2.20236L22.359 0.640318L21.4878 1.1312ZM22.3679 2.69324L22.1586 1.71539C21.4567 1.86564 20.6439 1.97811 19.7584 2.07927L19.8719 3.0728L19.9854 4.06634C20.889 3.96312 21.7787 3.84202 22.5772 3.67109L22.3679 2.69324ZM19.8719 3.0728H18.8719V3.58375H19.8719H20.8719V3.0728H19.8719ZM19.8719 3.58375V4.58375H22.4833V3.58375V2.58375H19.8719V3.58375ZM22.4833 3.58375H21.4833V5.0874H22.4833H23.4833V3.58375H22.4833ZM22.4833 5.0874V4.0874H19.8719V5.0874V6.0874H22.4833V5.0874ZM19.8719 5.0874H18.8719V5.45237H19.8719H20.8719V5.0874H19.8719ZM19.8719 5.45237V6.45237H22.2958V5.45237V4.45237H19.8719V5.45237ZM22.2958 5.45237H21.2958V10.0947H22.2958H23.2958V5.45237H22.2958ZM22.2958 10.0947V9.0947H19.8719V10.0947V11.0947H22.2958V10.0947ZM19.8719 10.0947H18.8719V10.4743H19.8719H20.8719V10.0947H19.8719ZM19.8719 10.4743V11.4743H22.3823V10.4743V9.47426H19.8719V10.4743ZM22.3823 10.4743H21.3823V11.9487H22.3823H23.3823V10.4743H22.3823ZM22.3823 11.9487L23.2312 12.4773C24.2868 10.782 24.578 8.68536 24.6799 6.31281L23.6809 6.26988L22.6818 6.22695C22.5817 8.55514 22.2958 10.1957 21.5334 11.4202L22.3823 11.9487ZM23.6809 6.26988V5.26988H22.541V6.26988V7.26988H23.6809V6.26988ZM22.541 6.26988H23.541V4.32828H22.541H21.541V6.26988H22.541ZM22.541 4.32828V5.32828H23.7241V4.32828V3.32828H22.541V4.32828ZM23.7241 4.32828H24.7241V1.36477H23.7241H22.7241V4.32828H23.7241ZM23.7241 1.36477V2.36477H25.7296V1.36477V0.364775H23.7241V1.36477ZM25.7296 1.36477H24.7296C24.7296 2.40299 24.7296 3.38768 24.7153 4.31284L25.7152 4.32828L26.7151 4.34372C26.7297 3.40027 26.7296 2.39955 26.7296 1.36477H25.7296ZM34.5163 7.29178L33.5244 7.41899L33.7697 9.3314L34.7616 9.20419L35.7535 9.07698L35.5082 7.16457L34.5163 7.29178ZM34.7616 9.20419L34.4956 8.24022C34.0118 8.37372 33.5901 8.47583 33.0601 8.6178L33.3188 9.58375L33.5775 10.5497C34.0285 10.4289 34.5591 10.2974 35.0276 10.1682L34.7616 9.20419ZM33.3188 9.58375H32.3188V12.81H33.3188H34.3188V9.58375H33.3188ZM33.3188 12.81H32.3188C32.3188 13.2503 32.2785 13.4702 32.236 13.584C32.2186 13.6306 32.2042 13.6492 32.1977 13.657C32.191 13.6648 32.1739 13.683 32.1282 13.7093L32.6262 14.5765L33.1242 15.4436C33.5922 15.1749 33.921 14.7882 34.1094 14.2842C34.2797 13.8287 34.3188 13.3187 34.3188 12.81H33.3188ZM32.6262 14.5765L32.1208 13.7136C31.8387 13.8788 31.3719 13.956 30.3033 13.956V14.956V15.956C31.3124 15.956 32.3172 15.9164 33.1317 15.4393L32.6262 14.5765ZM30.3033 14.956L31.2977 14.8498C31.2253 14.1727 30.9257 13.2347 30.6512 12.6301L29.7406 13.0436L28.8301 13.4571C29.0461 13.9328 29.2659 14.6591 29.309 15.0623L30.3033 14.956ZM29.7406 13.0436L29.6829 14.0419C30.2208 14.073 30.8398 14.0728 31.0247 14.0728V13.0728V12.0728C30.8346 12.0728 30.2705 12.0726 29.7984 12.0453L29.7406 13.0436ZM31.0247 13.0728V14.0728C31.1995 14.0728 31.6152 14.0512 31.9488 13.7137C32.2791 13.3794 32.2989 12.9669 32.2989 12.7954H31.2989H30.2989C30.2989 12.795 30.298 12.7394 30.3212 12.6565C30.3467 12.5648 30.4042 12.4314 30.5263 12.3078C30.6489 12.1838 30.7832 12.1238 30.8784 12.0966C30.9641 12.0721 31.0223 12.0728 31.0247 12.0728V13.0728ZM31.2989 12.7954H32.2989V10.0947H31.2989H30.2989V12.7954H31.2989ZM31.2989 10.0947L31.0536 9.12524L29.7263 9.461L29.9715 10.4305L30.2167 11.3999L31.5441 11.0642L31.2989 10.0947ZM29.9715 10.4305L30.9419 10.189L30.4369 8.15978L29.4665 8.40127L28.4961 8.64276L29.0011 10.672L29.9715 10.4305ZM29.4665 8.40127L29.6545 9.38344C30.2008 9.27886 30.8313 9.14528 31.5093 8.99931L31.2989 8.02171L31.0884 7.04411C30.4102 7.19011 29.7999 7.3193 29.2785 7.4191L29.4665 8.40127ZM31.2989 8.02171H32.2989V5.70054H31.2989H30.2989V8.02171H31.2989ZM31.2989 5.70054V4.70054H29.6974V5.70054V6.70054H31.2989V5.70054ZM29.6974 5.70054H30.6974V3.74434H29.6974H28.6974V5.70054H29.6974ZM29.6974 3.74434V4.74434H31.2989V3.74434V2.74434H29.6974V3.74434ZM31.2989 3.74434H32.2989V1.0874H31.2989H30.2989V3.74434H31.2989ZM31.2989 1.0874V2.0874H33.3188V1.0874V0.0874023H31.2989V1.0874ZM33.3188 1.0874H32.3188V3.74434H33.3188H34.3188V1.0874H33.3188ZM33.3188 3.74434V4.74434H34.574V3.74434V2.74434H33.3188V3.74434ZM34.574 3.74434H33.574V5.70054H34.574H35.574V3.74434H34.574ZM34.574 5.70054V4.70054H33.3188V5.70054V6.70054H34.574V5.70054ZM33.3188 5.70054H32.3188V7.56915H33.3188H34.3188V5.70054H33.3188ZM33.3188 7.56915L33.5444 8.54336L34.742 8.26599L34.5163 7.29178L34.2907 6.31757L33.0931 6.59494L33.3188 7.56915ZM39.8114 11.8319V12.8319H40.9079V11.8319V10.8319H39.8114V11.8319ZM40.9079 11.8319H41.9079V9.97791H40.9079H39.9079V11.8319H40.9079ZM40.9079 9.97791V8.97791H39.8114V9.97791V10.9779H40.9079V9.97791ZM39.8114 9.97791H38.8114V11.8319H39.8114H40.8114V9.97791H39.8114ZM36.8104 9.97791H35.8104V11.8319H36.8104H37.8104V9.97791H36.8104ZM36.8104 11.8319V12.8319H37.8348V11.8319V10.8319H36.8104V11.8319ZM37.8348 11.8319H38.8348V9.97791H37.8348H36.8348V11.8319H37.8348ZM37.8348 9.97791V8.97791H36.8104V9.97791V10.9779H37.8348V9.97791ZM37.8348 6.31368V5.31368H36.8104V6.31368V7.31368H37.8348V6.31368ZM36.8104 6.31368H35.8104V8.00711H36.8104H37.8104V6.31368H36.8104ZM36.8104 8.00711V9.00711H37.8348V8.00711V7.00711H36.8104V8.00711ZM37.8348 8.00711H38.8348V6.31368H37.8348H36.8348V8.00711H37.8348ZM40.9079 6.31368V5.31368H39.8114V6.31368V7.31368H40.9079V6.31368ZM39.8114 6.31368H38.8114V8.00711H39.8114H40.8114V6.31368H39.8114ZM39.8114 8.00711V9.00711H40.9079V8.00711V7.00711H39.8114V8.00711ZM40.9079 8.00711H41.9079V6.31368H40.9079H39.9079V8.00711H40.9079ZM39.8114 4.29908V5.29908H43V4.29908V3.29908H39.8114V4.29908ZM43 4.29908H42V14.8392H43H44V4.29908H43ZM43 14.8392V13.8392H40.9079V14.8392V15.8392H43V14.8392ZM40.9079 14.8392H41.9079V13.8611H40.9079H39.9079V14.8392H40.9079ZM40.9079 13.8611V12.8611H36.8104V13.8611V14.8611H40.9079V13.8611ZM36.8104 13.8611H35.8104V14.9414H36.8104H37.8104V13.8611H36.8104ZM36.8104 14.9414V13.9414H34.8193V14.9414V15.9414H36.8104V14.9414ZM34.8193 14.9414H35.8193V4.29908H34.8193H33.8193V14.9414H34.8193ZM34.8193 4.29908V5.29908H37.8348V4.29908V3.29908H34.8193V4.29908ZM37.8348 4.29908H38.8348V1.1166H37.8348H36.8348V4.29908H37.8348ZM37.8348 1.1166V2.1166H39.8114V1.1166V0.116599H37.8348V1.1166ZM39.8114 1.1166H38.8114V4.29908H39.8114H40.8114V1.1166H39.8114Z" fill="white" mask="url(#path-1-outside-1_4322_2523)"/>
</svg>
