<svg width="112" height="42" viewBox="0 0 112 42" fill="none" xmlns="http://www.w3.org/2000/svg">
<mask id="path-1-outside-1_6004_299" maskUnits="userSpaceOnUse" x="0" y="-0.670227" width="112" height="43" fill="black">
<rect fill="white" y="-0.670227" width="112" height="43"/>
<path d="M13.0952 4.59728L17.9058 6.16885C17.0432 8.34231 15.9816 10.6161 14.754 12.7895V36.1291H9.97654V19.9118C9.24665 20.8146 8.51676 21.6171 7.78686 22.3528C7.28921 21.1156 5.8626 18.3737 5 17.1365C8.21816 14.1605 11.3036 9.41232 13.0952 4.59728ZM37.3807 23.1887H29.1528V30.4782H36.6176V35.126H17.0432V30.4782H24.2426V23.1887H16.1475V18.5074H24.2426V12.0205H17.7399V7.43949H36.12V12.0205H29.1528V18.5074H37.3807V23.1887Z"/>
<path d="M53.2061 23.1553H57.5523C57.6518 22.3862 57.7182 21.5837 57.7845 20.7812C56.8224 21.1156 55.8271 21.4499 54.7986 21.7174C54.5995 21.3162 54.2346 20.7812 53.8696 20.2462C53.6706 21.2493 53.4383 22.219 53.2061 23.1553ZM62.7279 11.7195H59.0452C59.6424 12.4552 60.3391 13.1239 61.1686 13.7258C61.7657 13.1239 62.2966 12.4552 62.7279 11.7195ZM69.7614 11.7195H68.1357C67.3727 13.3914 66.4105 14.8292 65.2825 16.0664C66.9082 16.7352 68.7329 17.2702 70.7235 17.6046C69.695 18.5743 68.3348 20.4802 67.7044 21.7174C65.3157 21.1156 63.1924 20.2462 61.3345 19.1427C60.5382 19.5774 59.742 19.9787 58.8794 20.3465H62.5952C62.5288 21.3162 62.4293 22.2524 62.3298 23.1553H69.5292C69.5292 23.1553 69.4628 24.3256 69.3964 24.9275C68.8988 30.4447 68.3348 33.0863 67.3727 34.1563C66.5764 35.0591 65.7802 35.3601 64.7517 35.5273C63.8891 35.661 62.5288 35.6945 61.0027 35.661C60.9363 34.2901 60.4387 32.4175 59.7088 31.2138C60.7704 31.3141 61.7657 31.3475 62.2966 31.3475C62.7611 31.3475 63.0265 31.2807 63.3582 30.9463C63.7232 30.5785 64.0881 29.475 64.3867 27.1344H61.5335C60.3723 30.9797 58.0168 34.0894 52.7748 36.2295C52.244 35.0591 51.0164 33.3538 50.0211 32.451C53.6374 31.1469 55.4953 29.3078 56.4906 27.1344H53.2061V23.1887C52.9407 24.2587 52.6753 25.2284 52.3767 26.0644L49.1917 24.5597C49.4571 23.4228 49.7225 21.9181 49.9216 20.3799H48.8931V31.08C48.8931 33.1866 48.5945 34.4573 47.2674 35.2263C45.9735 35.962 44.3479 36.0623 42.2577 36.0623C42.125 34.7248 41.4946 32.7185 40.8975 31.4144C42.0255 31.4813 43.3857 31.4813 43.817 31.4813C44.2151 31.4478 44.3479 31.381 44.3479 30.9797V25.73C43.3194 27.7697 42.0586 29.6088 40.632 30.846C40.2339 29.4416 39.2054 27.4353 38.4755 26.0978C40.2007 24.6934 41.7269 22.5868 42.8217 20.3799H39.1723V16.1668H45.8408C44.0824 15.2305 41.9591 14.2942 40.2339 13.6255L43.253 10.5158C43.9497 10.7498 44.7128 11.0173 45.509 11.3183C45.9735 10.8836 46.4712 10.4155 46.9025 9.91389H39.7031V5.86791H50.187L50.9169 5.70072L53.9692 7.60668C52.9075 9.44576 51.1823 11.4186 49.3907 13.0236C50.2533 13.4583 51.0164 13.8596 51.6136 14.2274L49.7889 16.1668H50.9169L51.5473 15.9661L54.4336 16.9024L54.4005 17.1365C55.4953 16.869 56.4906 16.5346 57.4196 16.0999C56.8224 15.498 56.2584 14.8292 55.7275 14.1271C55.3958 14.4614 55.064 14.7624 54.7654 15.0299C53.8365 14.2608 51.9454 12.9567 50.8505 12.3549C53.4383 10.4823 55.8934 7.43949 57.2205 4.39665L61.6994 5.66729C61.3676 6.36948 61.0027 7.07168 60.6046 7.74043H69.7614V11.7195Z"/>
<path d="M102.673 27.5022L99.322 30.9128C97.8623 29.241 95.1418 26.7331 92.6203 24.4593C91.1937 26.7666 88.9377 29.0069 85.3546 30.8794C84.691 29.8763 83.1649 28.3381 82.0369 27.5022C85.9849 25.7969 87.9755 23.6568 89.004 21.5837H82.634V17.1699H89.9993V14.1939H83.4635V9.81358H86.7812C86.1508 8.57638 85.2882 7.07168 84.6247 5.90135L88.7054 4.32977C89.6676 5.83448 91.0278 7.94106 91.6914 9.24513L90.3311 9.81358H93.5824C94.4119 8.10825 95.2081 6.0351 95.7058 4.39665L100.55 5.80104C99.8197 7.17199 99.0566 8.57638 98.3267 9.81358H101.545V14.1939H94.7768V17.1699H102.374V21.5837H95.9048C98.3599 23.6568 101.114 25.9306 102.673 27.5022ZM80.8757 9.44576L77.1267 12.0539C76.2972 10.6161 74.4725 8.27544 73.0459 6.60355L76.6622 4.43009C78.1883 6.00166 79.9467 8.07481 80.8757 9.44576ZM79.814 20.1793L81.7714 20.9818C81.4729 23.5231 80.9752 25.7969 80.3117 27.7697C82.1696 31.0466 85.62 31.4478 90.6297 31.4813C94.2128 31.4813 100.019 31.2472 104 30.846C103.336 31.8157 102.706 33.9891 102.474 35.2932C98.8244 35.5273 94.5446 35.6276 90.5302 35.6276C84.7905 35.6276 81.1079 34.9923 78.6196 31.7822C77.558 33.7216 76.2641 35.2263 74.8043 36.3298C74.1739 35.3935 72.6146 33.7551 71.6857 33.1197C74.373 31.2807 76.1645 28.1709 77.1267 23.9912H75.2688C74.5057 23.9912 73.4772 24.2253 73.1786 24.5262C72.9464 23.5565 72.117 21.5503 71.7188 20.7143C72.2828 20.5806 72.8468 20.3131 73.5104 19.6109C74.008 19.1093 75.1361 17.638 76.1977 16.0999H72.4819V12.288H79.1836L79.5818 12.1208L82.435 13.3914C81.2406 15.1971 79.3164 18.0727 77.6575 20.2796H79.0841L79.814 20.1793Z"/>
</mask>
<path d="M13.0952 4.59728L17.9058 6.16885C17.0432 8.34231 15.9816 10.6161 14.754 12.7895V36.1291H9.97654V19.9118C9.24665 20.8146 8.51676 21.6171 7.78686 22.3528C7.28921 21.1156 5.8626 18.3737 5 17.1365C8.21816 14.1605 11.3036 9.41232 13.0952 4.59728ZM37.3807 23.1887H29.1528V30.4782H36.6176V35.126H17.0432V30.4782H24.2426V23.1887H16.1475V18.5074H24.2426V12.0205H17.7399V7.43949H36.12V12.0205H29.1528V18.5074H37.3807V23.1887Z" fill="#F99B96"/>
<path d="M53.2061 23.1553H57.5523C57.6518 22.3862 57.7182 21.5837 57.7845 20.7812C56.8224 21.1156 55.8271 21.4499 54.7986 21.7174C54.5995 21.3162 54.2346 20.7812 53.8696 20.2462C53.6706 21.2493 53.4383 22.219 53.2061 23.1553ZM62.7279 11.7195H59.0452C59.6424 12.4552 60.3391 13.1239 61.1686 13.7258C61.7657 13.1239 62.2966 12.4552 62.7279 11.7195ZM69.7614 11.7195H68.1357C67.3727 13.3914 66.4105 14.8292 65.2825 16.0664C66.9082 16.7352 68.7329 17.2702 70.7235 17.6046C69.695 18.5743 68.3348 20.4802 67.7044 21.7174C65.3157 21.1156 63.1924 20.2462 61.3345 19.1427C60.5382 19.5774 59.742 19.9787 58.8794 20.3465H62.5952C62.5288 21.3162 62.4293 22.2524 62.3298 23.1553H69.5292C69.5292 23.1553 69.4628 24.3256 69.3964 24.9275C68.8988 30.4447 68.3348 33.0863 67.3727 34.1563C66.5764 35.0591 65.7802 35.3601 64.7517 35.5273C63.8891 35.661 62.5288 35.6945 61.0027 35.661C60.9363 34.2901 60.4387 32.4175 59.7088 31.2138C60.7704 31.3141 61.7657 31.3475 62.2966 31.3475C62.7611 31.3475 63.0265 31.2807 63.3582 30.9463C63.7232 30.5785 64.0881 29.475 64.3867 27.1344H61.5335C60.3723 30.9797 58.0168 34.0894 52.7748 36.2295C52.244 35.0591 51.0164 33.3538 50.0211 32.451C53.6374 31.1469 55.4953 29.3078 56.4906 27.1344H53.2061V23.1887C52.9407 24.2587 52.6753 25.2284 52.3767 26.0644L49.1917 24.5597C49.4571 23.4228 49.7225 21.9181 49.9216 20.3799H48.8931V31.08C48.8931 33.1866 48.5945 34.4573 47.2674 35.2263C45.9735 35.962 44.3479 36.0623 42.2577 36.0623C42.125 34.7248 41.4946 32.7185 40.8975 31.4144C42.0255 31.4813 43.3857 31.4813 43.817 31.4813C44.2151 31.4478 44.3479 31.381 44.3479 30.9797V25.73C43.3194 27.7697 42.0586 29.6088 40.632 30.846C40.2339 29.4416 39.2054 27.4353 38.4755 26.0978C40.2007 24.6934 41.7269 22.5868 42.8217 20.3799H39.1723V16.1668H45.8408C44.0824 15.2305 41.9591 14.2942 40.2339 13.6255L43.253 10.5158C43.9497 10.7498 44.7128 11.0173 45.509 11.3183C45.9735 10.8836 46.4712 10.4155 46.9025 9.91389H39.7031V5.86791H50.187L50.9169 5.70072L53.9692 7.60668C52.9075 9.44576 51.1823 11.4186 49.3907 13.0236C50.2533 13.4583 51.0164 13.8596 51.6136 14.2274L49.7889 16.1668H50.9169L51.5473 15.9661L54.4336 16.9024L54.4005 17.1365C55.4953 16.869 56.4906 16.5346 57.4196 16.0999C56.8224 15.498 56.2584 14.8292 55.7275 14.1271C55.3958 14.4614 55.064 14.7624 54.7654 15.0299C53.8365 14.2608 51.9454 12.9567 50.8505 12.3549C53.4383 10.4823 55.8934 7.43949 57.2205 4.39665L61.6994 5.66729C61.3676 6.36948 61.0027 7.07168 60.6046 7.74043H69.7614V11.7195Z" fill="#F99B96"/>
<path d="M102.673 27.5022L99.322 30.9128C97.8623 29.241 95.1418 26.7331 92.6203 24.4593C91.1937 26.7666 88.9377 29.0069 85.3546 30.8794C84.691 29.8763 83.1649 28.3381 82.0369 27.5022C85.9849 25.7969 87.9755 23.6568 89.004 21.5837H82.634V17.1699H89.9993V14.1939H83.4635V9.81358H86.7812C86.1508 8.57638 85.2882 7.07168 84.6247 5.90135L88.7054 4.32977C89.6676 5.83448 91.0278 7.94106 91.6914 9.24513L90.3311 9.81358H93.5824C94.4119 8.10825 95.2081 6.0351 95.7058 4.39665L100.55 5.80104C99.8197 7.17199 99.0566 8.57638 98.3267 9.81358H101.545V14.1939H94.7768V17.1699H102.374V21.5837H95.9048C98.3599 23.6568 101.114 25.9306 102.673 27.5022ZM80.8757 9.44576L77.1267 12.0539C76.2972 10.6161 74.4725 8.27544 73.0459 6.60355L76.6622 4.43009C78.1883 6.00166 79.9467 8.07481 80.8757 9.44576ZM79.814 20.1793L81.7714 20.9818C81.4729 23.5231 80.9752 25.7969 80.3117 27.7697C82.1696 31.0466 85.62 31.4478 90.6297 31.4813C94.2128 31.4813 100.019 31.2472 104 30.846C103.336 31.8157 102.706 33.9891 102.474 35.2932C98.8244 35.5273 94.5446 35.6276 90.5302 35.6276C84.7905 35.6276 81.1079 34.9923 78.6196 31.7822C77.558 33.7216 76.2641 35.2263 74.8043 36.3298C74.1739 35.3935 72.6146 33.7551 71.6857 33.1197C74.373 31.2807 76.1645 28.1709 77.1267 23.9912H75.2688C74.5057 23.9912 73.4772 24.2253 73.1786 24.5262C72.9464 23.5565 72.117 21.5503 71.7188 20.7143C72.2828 20.5806 72.8468 20.3131 73.5104 19.6109C74.008 19.1093 75.1361 17.638 76.1977 16.0999H72.4819V12.288H79.1836L79.5818 12.1208L82.435 13.3914C81.2406 15.1971 79.3164 18.0727 77.6575 20.2796H79.0841L79.814 20.1793Z" fill="#F99B96"/>
<path d="M13.0952 4.59728L17.9058 6.16885C17.0432 8.34231 15.9816 10.6161 14.754 12.7895V36.1291H9.97654V19.9118C9.24665 20.8146 8.51676 21.6171 7.78686 22.3528C7.28921 21.1156 5.8626 18.3737 5 17.1365C8.21816 14.1605 11.3036 9.41232 13.0952 4.59728ZM37.3807 23.1887H29.1528V30.4782H36.6176V35.126H17.0432V30.4782H24.2426V23.1887H16.1475V18.5074H24.2426V12.0205H17.7399V7.43949H36.12V12.0205H29.1528V18.5074H37.3807V23.1887Z" stroke="white" stroke-width="7" mask="url(#path-1-outside-1_6004_299)"/>
<path d="M53.2061 23.1553H57.5523C57.6518 22.3862 57.7182 21.5837 57.7845 20.7812C56.8224 21.1156 55.8271 21.4499 54.7986 21.7174C54.5995 21.3162 54.2346 20.7812 53.8696 20.2462C53.6706 21.2493 53.4383 22.219 53.2061 23.1553ZM62.7279 11.7195H59.0452C59.6424 12.4552 60.3391 13.1239 61.1686 13.7258C61.7657 13.1239 62.2966 12.4552 62.7279 11.7195ZM69.7614 11.7195H68.1357C67.3727 13.3914 66.4105 14.8292 65.2825 16.0664C66.9082 16.7352 68.7329 17.2702 70.7235 17.6046C69.695 18.5743 68.3348 20.4802 67.7044 21.7174C65.3157 21.1156 63.1924 20.2462 61.3345 19.1427C60.5382 19.5774 59.742 19.9787 58.8794 20.3465H62.5952C62.5288 21.3162 62.4293 22.2524 62.3298 23.1553H69.5292C69.5292 23.1553 69.4628 24.3256 69.3964 24.9275C68.8988 30.4447 68.3348 33.0863 67.3727 34.1563C66.5764 35.0591 65.7802 35.3601 64.7517 35.5273C63.8891 35.661 62.5288 35.6945 61.0027 35.661C60.9363 34.2901 60.4387 32.4175 59.7088 31.2138C60.7704 31.3141 61.7657 31.3475 62.2966 31.3475C62.7611 31.3475 63.0265 31.2807 63.3582 30.9463C63.7232 30.5785 64.0881 29.475 64.3867 27.1344H61.5335C60.3723 30.9797 58.0168 34.0894 52.7748 36.2295C52.244 35.0591 51.0164 33.3538 50.0211 32.451C53.6374 31.1469 55.4953 29.3078 56.4906 27.1344H53.2061V23.1887C52.9407 24.2587 52.6753 25.2284 52.3767 26.0644L49.1917 24.5597C49.4571 23.4228 49.7225 21.9181 49.9216 20.3799H48.8931V31.08C48.8931 33.1866 48.5945 34.4573 47.2674 35.2263C45.9735 35.962 44.3479 36.0623 42.2577 36.0623C42.125 34.7248 41.4946 32.7185 40.8975 31.4144C42.0255 31.4813 43.3857 31.4813 43.817 31.4813C44.2151 31.4478 44.3479 31.381 44.3479 30.9797V25.73C43.3194 27.7697 42.0586 29.6088 40.632 30.846C40.2339 29.4416 39.2054 27.4353 38.4755 26.0978C40.2007 24.6934 41.7269 22.5868 42.8217 20.3799H39.1723V16.1668H45.8408C44.0824 15.2305 41.9591 14.2942 40.2339 13.6255L43.253 10.5158C43.9497 10.7498 44.7128 11.0173 45.509 11.3183C45.9735 10.8836 46.4712 10.4155 46.9025 9.91389H39.7031V5.86791H50.187L50.9169 5.70072L53.9692 7.60668C52.9075 9.44576 51.1823 11.4186 49.3907 13.0236C50.2533 13.4583 51.0164 13.8596 51.6136 14.2274L49.7889 16.1668H50.9169L51.5473 15.9661L54.4336 16.9024L54.4005 17.1365C55.4953 16.869 56.4906 16.5346 57.4196 16.0999C56.8224 15.498 56.2584 14.8292 55.7275 14.1271C55.3958 14.4614 55.064 14.7624 54.7654 15.0299C53.8365 14.2608 51.9454 12.9567 50.8505 12.3549C53.4383 10.4823 55.8934 7.43949 57.2205 4.39665L61.6994 5.66729C61.3676 6.36948 61.0027 7.07168 60.6046 7.74043H69.7614V11.7195Z" stroke="white" stroke-width="7" mask="url(#path-1-outside-1_6004_299)"/>
<path d="M102.673 27.5022L99.322 30.9128C97.8623 29.241 95.1418 26.7331 92.6203 24.4593C91.1937 26.7666 88.9377 29.0069 85.3546 30.8794C84.691 29.8763 83.1649 28.3381 82.0369 27.5022C85.9849 25.7969 87.9755 23.6568 89.004 21.5837H82.634V17.1699H89.9993V14.1939H83.4635V9.81358H86.7812C86.1508 8.57638 85.2882 7.07168 84.6247 5.90135L88.7054 4.32977C89.6676 5.83448 91.0278 7.94106 91.6914 9.24513L90.3311 9.81358H93.5824C94.4119 8.10825 95.2081 6.0351 95.7058 4.39665L100.55 5.80104C99.8197 7.17199 99.0566 8.57638 98.3267 9.81358H101.545V14.1939H94.7768V17.1699H102.374V21.5837H95.9048C98.3599 23.6568 101.114 25.9306 102.673 27.5022ZM80.8757 9.44576L77.1267 12.0539C76.2972 10.6161 74.4725 8.27544 73.0459 6.60355L76.6622 4.43009C78.1883 6.00166 79.9467 8.07481 80.8757 9.44576ZM79.814 20.1793L81.7714 20.9818C81.4729 23.5231 80.9752 25.7969 80.3117 27.7697C82.1696 31.0466 85.62 31.4478 90.6297 31.4813C94.2128 31.4813 100.019 31.2472 104 30.846C103.336 31.8157 102.706 33.9891 102.474 35.2932C98.8244 35.5273 94.5446 35.6276 90.5302 35.6276C84.7905 35.6276 81.1079 34.9923 78.6196 31.7822C77.558 33.7216 76.2641 35.2263 74.8043 36.3298C74.1739 35.3935 72.6146 33.7551 71.6857 33.1197C74.373 31.2807 76.1645 28.1709 77.1267 23.9912H75.2688C74.5057 23.9912 73.4772 24.2253 73.1786 24.5262C72.9464 23.5565 72.117 21.5503 71.7188 20.7143C72.2828 20.5806 72.8468 20.3131 73.5104 19.6109C74.008 19.1093 75.1361 17.638 76.1977 16.0999H72.4819V12.288H79.1836L79.5818 12.1208L82.435 13.3914C81.2406 15.1971 79.3164 18.0727 77.6575 20.2796H79.0841L79.814 20.1793Z" stroke="white" stroke-width="7" mask="url(#path-1-outside-1_6004_299)"/>
</svg>
