<svg width="48" height="17" viewBox="0 0 48 17" fill="none" xmlns="http://www.w3.org/2000/svg">
<mask id="path-1-outside-1_4322_2530" maskUnits="userSpaceOnUse" x="-0.655762" y="-0.8125" width="48" height="18" fill="black">
<rect fill="white" x="-0.655762" y="-0.8125" width="48" height="18"/>
<path d="M5.0688 1.27574L7.28216 1.96691C6.88528 2.92279 6.39682 3.92279 5.83203 4.87868V15.1434H3.63393V8.01103C3.29811 8.40809 2.96228 8.76103 2.62646 9.08456C2.39749 8.54044 1.74112 7.33456 1.34424 6.79044C2.8249 5.48162 4.24451 3.39338 5.0688 1.27574ZM16.2425 9.45221H12.4569V12.6581H15.8914V14.7022H6.88528V12.6581H10.1977V9.45221H6.47314V7.39338H10.1977V4.54044H7.20584V2.52574H15.6624V4.54044H12.4569V7.39338H16.2425V9.45221Z"/>
<path d="M23.5237 9.4375H25.5233C25.5691 9.09926 25.5997 8.74632 25.6302 8.39338C25.1875 8.54044 24.7296 8.6875 24.2564 8.80515C24.1648 8.62868 23.9969 8.39338 23.829 8.15809C23.7374 8.59926 23.6305 9.02574 23.5237 9.4375ZM27.9046 4.40809H26.2103C26.485 4.73162 26.8056 5.02574 27.1872 5.29044C27.4619 5.02574 27.7062 4.73162 27.9046 4.40809ZM31.1407 4.40809H30.3927C30.0417 5.14338 29.599 5.77574 29.08 6.31985C29.828 6.61397 30.6675 6.84927 31.5834 6.99632C31.1102 7.42279 30.4843 8.26103 30.1943 8.80515C29.0953 8.54044 28.1183 8.15809 27.2635 7.67279C26.8972 7.86397 26.5308 8.04044 26.1339 8.20221H27.8436C27.813 8.62868 27.7672 9.04044 27.7214 9.4375H31.0339C31.0339 9.4375 31.0033 9.95221 30.9728 10.2169C30.7438 12.6434 30.4843 13.8051 30.0417 14.2757C29.6753 14.6728 29.309 14.8051 28.8358 14.8787C28.4389 14.9375 27.813 14.9522 27.1109 14.9375C27.0803 14.3346 26.8514 13.511 26.5155 12.9816C27.004 13.0257 27.4619 13.0404 27.7062 13.0404C27.9199 13.0404 28.042 13.011 28.1946 12.864C28.3626 12.7022 28.5305 12.2169 28.6678 11.1875H27.3551C26.8208 12.8787 25.737 14.2463 23.3252 15.1875C23.081 14.6728 22.5162 13.9228 22.0583 13.5257C23.7221 12.9522 24.5769 12.1434 25.0349 11.1875H23.5237V9.45221C23.4016 9.92279 23.2794 10.3493 23.1421 10.7169L21.6767 10.0551C21.7988 9.55515 21.9209 8.89338 22.0125 8.21691H21.5393V12.9228C21.5393 13.8493 21.4019 14.4081 20.7913 14.7463C20.196 15.0699 19.448 15.114 18.4864 15.114C18.4253 14.5257 18.1353 13.6434 17.8605 13.0699C18.3795 13.0993 19.0054 13.0993 19.2038 13.0993C19.387 13.0846 19.448 13.0551 19.448 12.8787V10.5699C18.9748 11.4669 18.3948 12.2757 17.7384 12.8199C17.5552 12.2022 17.082 11.3199 16.7462 10.7316C17.54 10.114 18.2421 9.1875 18.7459 8.21691H17.0668V6.36397H20.1349C19.3259 5.95221 18.349 5.54044 17.5552 5.24632L18.9443 3.87868C19.2649 3.98162 19.6159 4.09926 19.9823 4.23162C20.196 4.04044 20.425 3.83456 20.6234 3.61397H17.311V1.83456H22.1346L22.4704 1.76103L23.8748 2.59926C23.3863 3.40809 22.5925 4.27574 21.7683 4.98162C22.1651 5.17279 22.5162 5.34927 22.791 5.51103L21.9514 6.36397H22.4704L22.7605 6.27573L24.0885 6.6875L24.0732 6.79044C24.5769 6.67279 25.0349 6.52574 25.4623 6.33456C25.1875 6.06985 24.928 5.77574 24.6838 5.46691C24.5311 5.61397 24.3785 5.74632 24.2411 5.86397C23.8137 5.52574 22.9436 4.95221 22.4399 4.6875C23.6305 3.86397 24.7601 2.52574 25.3707 1.1875L27.4314 1.74632C27.2788 2.05515 27.1109 2.36397 26.9277 2.65809H31.1407V4.40809Z"/>
<path d="M37.3687 7.45221L37.6282 9.37868C37.1244 9.51103 36.6207 9.62868 36.1017 9.76103V13.011C36.1017 13.9669 35.9338 14.4816 35.369 14.7904C34.7889 15.114 34.0105 15.1728 32.9114 15.1728C32.8503 14.6287 32.5756 13.7904 32.3161 13.2463C32.8503 13.2757 33.4762 13.2757 33.6746 13.2757C33.8883 13.2757 33.9647 13.2022 33.9647 12.9963V10.2757L32.5603 10.614L32.0261 8.56985C32.5908 8.46691 33.2472 8.33456 33.9647 8.1875V5.84926H32.2703V3.87868H33.9647V1.20221H36.1017V3.87868H37.4297V5.84926H36.1017V7.73162L37.3687 7.45221ZM42.9708 12.0257H44.1309V10.1581H42.9708V12.0257ZM39.7957 10.1581V12.0257H40.8795V10.1581H39.7957ZM40.8795 6.46691H39.7957V8.17279H40.8795V6.46691ZM44.1309 6.46691H42.9708V8.17279H44.1309V6.46691ZM42.9708 4.4375H46.3442V15.0551H44.1309V14.0699H39.7957V15.1581H37.6892V4.4375H40.8795V1.23162H42.9708V4.4375Z"/>
</mask>
<path d="M5.0688 1.27574L7.28216 1.96691C6.88528 2.92279 6.39682 3.92279 5.83203 4.87868V15.1434H3.63393V8.01103C3.29811 8.40809 2.96228 8.76103 2.62646 9.08456C2.39749 8.54044 1.74112 7.33456 1.34424 6.79044C2.8249 5.48162 4.24451 3.39338 5.0688 1.27574ZM16.2425 9.45221H12.4569V12.6581H15.8914V14.7022H6.88528V12.6581H10.1977V9.45221H6.47314V7.39338H10.1977V4.54044H7.20584V2.52574H15.6624V4.54044H12.4569V7.39338H16.2425V9.45221Z" fill="#FF8CCF"/>
<path d="M23.5237 9.4375H25.5233C25.5691 9.09926 25.5997 8.74632 25.6302 8.39338C25.1875 8.54044 24.7296 8.6875 24.2564 8.80515C24.1648 8.62868 23.9969 8.39338 23.829 8.15809C23.7374 8.59926 23.6305 9.02574 23.5237 9.4375ZM27.9046 4.40809H26.2103C26.485 4.73162 26.8056 5.02574 27.1872 5.29044C27.4619 5.02574 27.7062 4.73162 27.9046 4.40809ZM31.1407 4.40809H30.3927C30.0417 5.14338 29.599 5.77574 29.08 6.31985C29.828 6.61397 30.6675 6.84927 31.5834 6.99632C31.1102 7.42279 30.4843 8.26103 30.1943 8.80515C29.0953 8.54044 28.1183 8.15809 27.2635 7.67279C26.8972 7.86397 26.5308 8.04044 26.1339 8.20221H27.8436C27.813 8.62868 27.7672 9.04044 27.7214 9.4375H31.0339C31.0339 9.4375 31.0033 9.95221 30.9728 10.2169C30.7438 12.6434 30.4843 13.8051 30.0417 14.2757C29.6753 14.6728 29.309 14.8051 28.8358 14.8787C28.4389 14.9375 27.813 14.9522 27.1109 14.9375C27.0803 14.3346 26.8514 13.511 26.5155 12.9816C27.004 13.0257 27.4619 13.0404 27.7062 13.0404C27.9199 13.0404 28.042 13.011 28.1946 12.864C28.3626 12.7022 28.5305 12.2169 28.6678 11.1875H27.3551C26.8208 12.8787 25.737 14.2463 23.3252 15.1875C23.081 14.6728 22.5162 13.9228 22.0583 13.5257C23.7221 12.9522 24.5769 12.1434 25.0349 11.1875H23.5237V9.45221C23.4016 9.92279 23.2794 10.3493 23.1421 10.7169L21.6767 10.0551C21.7988 9.55515 21.9209 8.89338 22.0125 8.21691H21.5393V12.9228C21.5393 13.8493 21.4019 14.4081 20.7913 14.7463C20.196 15.0699 19.448 15.114 18.4864 15.114C18.4253 14.5257 18.1353 13.6434 17.8605 13.0699C18.3795 13.0993 19.0054 13.0993 19.2038 13.0993C19.387 13.0846 19.448 13.0551 19.448 12.8787V10.5699C18.9748 11.4669 18.3948 12.2757 17.7384 12.8199C17.5552 12.2022 17.082 11.3199 16.7462 10.7316C17.54 10.114 18.2421 9.1875 18.7459 8.21691H17.0668V6.36397H20.1349C19.3259 5.95221 18.349 5.54044 17.5552 5.24632L18.9443 3.87868C19.2649 3.98162 19.6159 4.09926 19.9823 4.23162C20.196 4.04044 20.425 3.83456 20.6234 3.61397H17.311V1.83456H22.1346L22.4704 1.76103L23.8748 2.59926C23.3863 3.40809 22.5925 4.27574 21.7683 4.98162C22.1651 5.17279 22.5162 5.34927 22.791 5.51103L21.9514 6.36397H22.4704L22.7605 6.27573L24.0885 6.6875L24.0732 6.79044C24.5769 6.67279 25.0349 6.52574 25.4623 6.33456C25.1875 6.06985 24.928 5.77574 24.6838 5.46691C24.5311 5.61397 24.3785 5.74632 24.2411 5.86397C23.8137 5.52574 22.9436 4.95221 22.4399 4.6875C23.6305 3.86397 24.7601 2.52574 25.3707 1.1875L27.4314 1.74632C27.2788 2.05515 27.1109 2.36397 26.9277 2.65809H31.1407V4.40809Z" fill="#FF8CCF"/>
<path d="M37.3687 7.45221L37.6282 9.37868C37.1244 9.51103 36.6207 9.62868 36.1017 9.76103V13.011C36.1017 13.9669 35.9338 14.4816 35.369 14.7904C34.7889 15.114 34.0105 15.1728 32.9114 15.1728C32.8503 14.6287 32.5756 13.7904 32.3161 13.2463C32.8503 13.2757 33.4762 13.2757 33.6746 13.2757C33.8883 13.2757 33.9647 13.2022 33.9647 12.9963V10.2757L32.5603 10.614L32.0261 8.56985C32.5908 8.46691 33.2472 8.33456 33.9647 8.1875V5.84926H32.2703V3.87868H33.9647V1.20221H36.1017V3.87868H37.4297V5.84926H36.1017V7.73162L37.3687 7.45221ZM42.9708 12.0257H44.1309V10.1581H42.9708V12.0257ZM39.7957 10.1581V12.0257H40.8795V10.1581H39.7957ZM40.8795 6.46691H39.7957V8.17279H40.8795V6.46691ZM44.1309 6.46691H42.9708V8.17279H44.1309V6.46691ZM42.9708 4.4375H46.3442V15.0551H44.1309V14.0699H39.7957V15.1581H37.6892V4.4375H40.8795V1.23162H42.9708V4.4375Z" fill="#FF8CCF"/>
<path d="M5.0688 1.27574L7.28216 1.96691C6.88528 2.92279 6.39682 3.92279 5.83203 4.87868V15.1434H3.63393V8.01103C3.29811 8.40809 2.96228 8.76103 2.62646 9.08456C2.39749 8.54044 1.74112 7.33456 1.34424 6.79044C2.8249 5.48162 4.24451 3.39338 5.0688 1.27574ZM16.2425 9.45221H12.4569V12.6581H15.8914V14.7022H6.88528V12.6581H10.1977V9.45221H6.47314V7.39338H10.1977V4.54044H7.20584V2.52574H15.6624V4.54044H12.4569V7.39338H16.2425V9.45221Z" stroke="white" stroke-width="2" mask="url(#path-1-outside-1_4322_2530)"/>
<path d="M23.5237 9.4375H25.5233C25.5691 9.09926 25.5997 8.74632 25.6302 8.39338C25.1875 8.54044 24.7296 8.6875 24.2564 8.80515C24.1648 8.62868 23.9969 8.39338 23.829 8.15809C23.7374 8.59926 23.6305 9.02574 23.5237 9.4375ZM27.9046 4.40809H26.2103C26.485 4.73162 26.8056 5.02574 27.1872 5.29044C27.4619 5.02574 27.7062 4.73162 27.9046 4.40809ZM31.1407 4.40809H30.3927C30.0417 5.14338 29.599 5.77574 29.08 6.31985C29.828 6.61397 30.6675 6.84927 31.5834 6.99632C31.1102 7.42279 30.4843 8.26103 30.1943 8.80515C29.0953 8.54044 28.1183 8.15809 27.2635 7.67279C26.8972 7.86397 26.5308 8.04044 26.1339 8.20221H27.8436C27.813 8.62868 27.7672 9.04044 27.7214 9.4375H31.0339C31.0339 9.4375 31.0033 9.95221 30.9728 10.2169C30.7438 12.6434 30.4843 13.8051 30.0417 14.2757C29.6753 14.6728 29.309 14.8051 28.8358 14.8787C28.4389 14.9375 27.813 14.9522 27.1109 14.9375C27.0803 14.3346 26.8514 13.511 26.5155 12.9816C27.004 13.0257 27.4619 13.0404 27.7062 13.0404C27.9199 13.0404 28.042 13.011 28.1946 12.864C28.3626 12.7022 28.5305 12.2169 28.6678 11.1875H27.3551C26.8208 12.8787 25.737 14.2463 23.3252 15.1875C23.081 14.6728 22.5162 13.9228 22.0583 13.5257C23.7221 12.9522 24.5769 12.1434 25.0349 11.1875H23.5237V9.45221C23.4016 9.92279 23.2794 10.3493 23.1421 10.7169L21.6767 10.0551C21.7988 9.55515 21.9209 8.89338 22.0125 8.21691H21.5393V12.9228C21.5393 13.8493 21.4019 14.4081 20.7913 14.7463C20.196 15.0699 19.448 15.114 18.4864 15.114C18.4253 14.5257 18.1353 13.6434 17.8605 13.0699C18.3795 13.0993 19.0054 13.0993 19.2038 13.0993C19.387 13.0846 19.448 13.0551 19.448 12.8787V10.5699C18.9748 11.4669 18.3948 12.2757 17.7384 12.8199C17.5552 12.2022 17.082 11.3199 16.7462 10.7316C17.54 10.114 18.2421 9.1875 18.7459 8.21691H17.0668V6.36397H20.1349C19.3259 5.95221 18.349 5.54044 17.5552 5.24632L18.9443 3.87868C19.2649 3.98162 19.6159 4.09926 19.9823 4.23162C20.196 4.04044 20.425 3.83456 20.6234 3.61397H17.311V1.83456H22.1346L22.4704 1.76103L23.8748 2.59926C23.3863 3.40809 22.5925 4.27574 21.7683 4.98162C22.1651 5.17279 22.5162 5.34927 22.791 5.51103L21.9514 6.36397H22.4704L22.7605 6.27573L24.0885 6.6875L24.0732 6.79044C24.5769 6.67279 25.0349 6.52574 25.4623 6.33456C25.1875 6.06985 24.928 5.77574 24.6838 5.46691C24.5311 5.61397 24.3785 5.74632 24.2411 5.86397C23.8137 5.52574 22.9436 4.95221 22.4399 4.6875C23.6305 3.86397 24.7601 2.52574 25.3707 1.1875L27.4314 1.74632C27.2788 2.05515 27.1109 2.36397 26.9277 2.65809H31.1407V4.40809Z" stroke="white" stroke-width="2" mask="url(#path-1-outside-1_4322_2530)"/>
<path d="M37.3687 7.45221L37.6282 9.37868C37.1244 9.51103 36.6207 9.62868 36.1017 9.76103V13.011C36.1017 13.9669 35.9338 14.4816 35.369 14.7904C34.7889 15.114 34.0105 15.1728 32.9114 15.1728C32.8503 14.6287 32.5756 13.7904 32.3161 13.2463C32.8503 13.2757 33.4762 13.2757 33.6746 13.2757C33.8883 13.2757 33.9647 13.2022 33.9647 12.9963V10.2757L32.5603 10.614L32.0261 8.56985C32.5908 8.46691 33.2472 8.33456 33.9647 8.1875V5.84926H32.2703V3.87868H33.9647V1.20221H36.1017V3.87868H37.4297V5.84926H36.1017V7.73162L37.3687 7.45221ZM42.9708 12.0257H44.1309V10.1581H42.9708V12.0257ZM39.7957 10.1581V12.0257H40.8795V10.1581H39.7957ZM40.8795 6.46691H39.7957V8.17279H40.8795V6.46691ZM44.1309 6.46691H42.9708V8.17279H44.1309V6.46691ZM42.9708 4.4375H46.3442V15.0551H44.1309V14.0699H39.7957V15.1581H37.6892V4.4375H40.8795V1.23162H42.9708V4.4375Z" stroke="white" stroke-width="2" mask="url(#path-1-outside-1_4322_2530)"/>
</svg>
