<svg width="47" height="17" viewBox="0 0 47 17" fill="none" xmlns="http://www.w3.org/2000/svg">
<mask id="path-1-outside-1_4322_2512" maskUnits="userSpaceOnUse" x="-0.685547" y="-0.770508" width="48" height="18" fill="black">
<rect fill="white" x="-0.685547" y="-0.770508" width="48" height="18"/>
<path d="M4.83054 1.34652L6.92002 2.03409C6.54535 2.98498 6.08423 3.97975 5.55105 4.93064V15.1417H3.47598V8.04663C3.15896 8.44161 2.84193 8.79271 2.52491 9.11455C2.30876 8.57327 1.68912 7.37369 1.31445 6.83242C2.71224 5.53043 4.05239 3.45311 4.83054 1.34652ZM15.3788 9.48028H11.8051V12.6694H15.0474V14.7028H6.54535V12.6694H9.67236V9.48028H6.15628V7.43221H9.67236V4.59417H6.84797V2.58999H14.8312V4.59417H11.8051V7.43221H15.3788V9.48028Z"/>
<path d="M22.2525 9.46565H24.1402C24.1834 9.12918 24.2122 8.77808 24.2411 8.42698C23.8232 8.57327 23.3909 8.71957 22.9441 8.8366C22.8577 8.66105 22.6992 8.42698 22.5407 8.19292C22.4542 8.63179 22.3533 9.05603 22.2525 9.46565ZM26.3882 4.46251H24.7886C25.048 4.78435 25.3506 5.07693 25.7109 5.34026C25.9703 5.07693 26.2008 4.78435 26.3882 4.46251ZM29.4431 4.46251H28.737C28.4056 5.19396 27.9877 5.82301 27.4978 6.36429C28.2039 6.65687 28.9964 6.89093 29.861 7.03722C29.4143 7.46147 28.8235 8.29532 28.5497 8.8366C27.5122 8.57328 26.5899 8.19292 25.783 7.71016C25.4371 7.90034 25.0913 8.07589 24.7166 8.23681H26.3305C26.3017 8.66105 26.2585 9.07066 26.2153 9.46565H29.3423C29.3423 9.46565 29.3134 9.97766 29.2846 10.241C29.0685 12.6548 28.8235 13.8105 28.4056 14.2786C28.0598 14.6736 27.7139 14.8052 27.2672 14.8784C26.8925 14.9369 26.3017 14.9515 25.6388 14.9369C25.61 14.3371 25.3939 13.5179 25.0769 12.9912C25.538 13.0351 25.9703 13.0498 26.2008 13.0498C26.4026 13.0498 26.5179 13.0205 26.662 12.8742C26.8205 12.7133 26.979 12.2305 27.1087 11.2065H25.8694C25.3651 12.8888 24.3419 14.2493 22.0651 15.1856C21.8346 14.6736 21.3014 13.9275 20.8691 13.5325C22.4398 12.962 23.2468 12.1574 23.6791 11.2065H22.2525V9.48028C22.1372 9.9484 22.0219 10.3726 21.8922 10.7384L20.5088 10.0801C20.6241 9.58268 20.7394 8.92437 20.8258 8.25144H20.3791V12.9327C20.3791 13.8544 20.2494 14.4103 19.673 14.7467C19.111 15.0686 18.4049 15.1125 17.4971 15.1125C17.4395 14.5273 17.1657 13.6496 16.9063 13.079C17.3962 13.1083 17.987 13.1083 18.1744 13.1083C18.3473 13.0937 18.4049 13.0644 18.4049 12.8888V10.5921C17.9582 11.4845 17.4106 12.2891 16.791 12.8303C16.6181 12.2159 16.1714 11.3382 15.8543 10.753C16.6037 10.1386 17.2665 9.21695 17.7421 8.25144H16.1569V6.40818H19.0534C18.2897 5.99856 17.3674 5.58895 16.6181 5.29637L17.9294 3.93587C18.232 4.03827 18.5634 4.1553 18.9093 4.28696C19.111 4.09679 19.3272 3.89198 19.5145 3.67254H16.3875V1.90243H20.9411L21.2582 1.82928L22.5839 2.66314C22.1228 3.46774 21.3734 4.33085 20.5953 5.03304C20.9699 5.22322 21.3014 5.39877 21.5608 5.55969L20.7682 6.40818H21.2582L21.5319 6.3204L22.7856 6.73001L22.7712 6.83242C23.2468 6.71539 23.6791 6.56909 24.0826 6.37892C23.8232 6.11559 23.5782 5.82301 23.3476 5.5158C23.2035 5.66209 23.0594 5.79376 22.9297 5.91079C22.5262 5.57432 21.7049 5.00379 21.2293 4.74046C22.3533 3.92124 23.4197 2.58999 23.9961 1.25875L25.9415 1.81465C25.7974 2.12186 25.6388 2.42907 25.4659 2.72166H29.4431V4.46251Z"/>
<path d="M43.738 11.3674L42.2826 12.8596C41.6486 12.1281 40.4669 11.031 39.3718 10.0362C38.7521 11.0456 37.7722 12.0257 36.2159 12.845C35.9277 12.4061 35.2649 11.7331 34.7749 11.3674C36.4897 10.6213 37.3543 9.68508 37.801 8.77808H35.0343V6.84705H38.2334V5.54506H35.3945V3.62866H36.8356C36.5618 3.08738 36.1871 2.42907 35.8989 1.91706L37.6714 1.22949C38.0893 1.8878 38.6801 2.80943 38.9683 3.37996L38.3775 3.62866H39.7897C40.1499 2.88257 40.4958 1.97557 40.7119 1.25875L42.8158 1.87317C42.4988 2.47296 42.1673 3.08738 41.8503 3.62866H43.2481V5.54506H40.3084V6.84705H43.6084V8.77808H40.7984C41.8647 9.68508 43.0608 10.6799 43.738 11.3674ZM34.2705 3.46774L32.6422 4.6088C32.2819 3.97975 31.4894 2.95572 30.8697 2.22427L32.4405 1.27338C33.1033 1.96094 33.8671 2.86795 34.2705 3.46774ZM33.8094 8.16366L34.6596 8.51476C34.5299 9.62657 34.3138 10.6213 34.0256 11.4845C34.8326 12.9181 36.3312 13.0937 38.5071 13.1083C40.0634 13.1083 42.5852 13.0059 44.3145 12.8303C44.0262 13.2546 43.7525 14.2055 43.6516 14.776C42.0665 14.8784 40.2075 14.9223 38.4639 14.9223C35.971 14.9223 34.3714 14.6443 33.2907 13.2399C32.8295 14.0884 32.2675 14.7467 31.6335 15.2295C31.3597 14.8199 30.6824 14.1031 30.2789 13.8251C31.4462 13.0205 32.2243 11.66 32.6422 9.83137H31.8352C31.5038 9.83137 31.0571 9.93378 30.9274 10.0654C30.8265 9.6412 30.4663 8.76345 30.2933 8.39773C30.5383 8.33921 30.7833 8.22218 31.0715 7.91497C31.2876 7.69553 31.7776 7.05185 32.2387 6.37892H30.6248V4.71121H33.5356L33.7086 4.63806L34.9478 5.19396C34.4291 5.98393 33.5933 7.24203 32.8728 8.20755H33.4924L33.8094 8.16366Z"/>
</mask>
<path d="M4.83054 1.34652L6.92002 2.03409C6.54535 2.98498 6.08423 3.97975 5.55105 4.93064V15.1417H3.47598V8.04663C3.15896 8.44161 2.84193 8.79271 2.52491 9.11455C2.30876 8.57327 1.68912 7.37369 1.31445 6.83242C2.71224 5.53043 4.05239 3.45311 4.83054 1.34652ZM15.3788 9.48028H11.8051V12.6694H15.0474V14.7028H6.54535V12.6694H9.67236V9.48028H6.15628V7.43221H9.67236V4.59417H6.84797V2.58999H14.8312V4.59417H11.8051V7.43221H15.3788V9.48028Z" fill="#FF8CCF"/>
<path d="M22.2525 9.46565H24.1402C24.1834 9.12918 24.2122 8.77808 24.2411 8.42698C23.8232 8.57327 23.3909 8.71957 22.9441 8.8366C22.8577 8.66105 22.6992 8.42698 22.5407 8.19292C22.4542 8.63179 22.3533 9.05603 22.2525 9.46565ZM26.3882 4.46251H24.7886C25.048 4.78435 25.3506 5.07693 25.7109 5.34026C25.9703 5.07693 26.2008 4.78435 26.3882 4.46251ZM29.4431 4.46251H28.737C28.4056 5.19396 27.9877 5.82301 27.4978 6.36429C28.2039 6.65687 28.9964 6.89093 29.861 7.03722C29.4143 7.46147 28.8235 8.29532 28.5497 8.8366C27.5122 8.57328 26.5899 8.19292 25.783 7.71016C25.4371 7.90034 25.0913 8.07589 24.7166 8.23681H26.3305C26.3017 8.66105 26.2585 9.07066 26.2153 9.46565H29.3423C29.3423 9.46565 29.3134 9.97766 29.2846 10.241C29.0685 12.6548 28.8235 13.8105 28.4056 14.2786C28.0598 14.6736 27.7139 14.8052 27.2672 14.8784C26.8925 14.9369 26.3017 14.9515 25.6388 14.9369C25.61 14.3371 25.3939 13.5179 25.0769 12.9912C25.538 13.0351 25.9703 13.0498 26.2008 13.0498C26.4026 13.0498 26.5179 13.0205 26.662 12.8742C26.8205 12.7133 26.979 12.2305 27.1087 11.2065H25.8694C25.3651 12.8888 24.3419 14.2493 22.0651 15.1856C21.8346 14.6736 21.3014 13.9275 20.8691 13.5325C22.4398 12.962 23.2468 12.1574 23.6791 11.2065H22.2525V9.48028C22.1372 9.9484 22.0219 10.3726 21.8922 10.7384L20.5088 10.0801C20.6241 9.58268 20.7394 8.92437 20.8258 8.25144H20.3791V12.9327C20.3791 13.8544 20.2494 14.4103 19.673 14.7467C19.111 15.0686 18.4049 15.1125 17.4971 15.1125C17.4395 14.5273 17.1657 13.6496 16.9063 13.079C17.3962 13.1083 17.987 13.1083 18.1744 13.1083C18.3473 13.0937 18.4049 13.0644 18.4049 12.8888V10.5921C17.9582 11.4845 17.4106 12.2891 16.791 12.8303C16.6181 12.2159 16.1714 11.3382 15.8543 10.753C16.6037 10.1386 17.2665 9.21695 17.7421 8.25144H16.1569V6.40818H19.0534C18.2897 5.99856 17.3674 5.58895 16.6181 5.29637L17.9294 3.93587C18.232 4.03827 18.5634 4.1553 18.9093 4.28696C19.111 4.09679 19.3272 3.89198 19.5145 3.67254H16.3875V1.90243H20.9411L21.2582 1.82928L22.5839 2.66314C22.1228 3.46774 21.3734 4.33085 20.5953 5.03304C20.9699 5.22322 21.3014 5.39877 21.5608 5.55969L20.7682 6.40818H21.2582L21.5319 6.3204L22.7856 6.73001L22.7712 6.83242C23.2468 6.71539 23.6791 6.56909 24.0826 6.37892C23.8232 6.11559 23.5782 5.82301 23.3476 5.5158C23.2035 5.66209 23.0594 5.79376 22.9297 5.91079C22.5262 5.57432 21.7049 5.00379 21.2293 4.74046C22.3533 3.92124 23.4197 2.58999 23.9961 1.25875L25.9415 1.81465C25.7974 2.12186 25.6388 2.42907 25.4659 2.72166H29.4431V4.46251Z" fill="#FF8CCF"/>
<path d="M43.738 11.3674L42.2826 12.8596C41.6486 12.1281 40.4669 11.031 39.3718 10.0362C38.7521 11.0456 37.7722 12.0257 36.2159 12.845C35.9277 12.4061 35.2649 11.7331 34.7749 11.3674C36.4897 10.6213 37.3543 9.68508 37.801 8.77808H35.0343V6.84705H38.2334V5.54506H35.3945V3.62866H36.8356C36.5618 3.08738 36.1871 2.42907 35.8989 1.91706L37.6714 1.22949C38.0893 1.8878 38.6801 2.80943 38.9683 3.37996L38.3775 3.62866H39.7897C40.1499 2.88257 40.4958 1.97557 40.7119 1.25875L42.8158 1.87317C42.4988 2.47296 42.1673 3.08738 41.8503 3.62866H43.2481V5.54506H40.3084V6.84705H43.6084V8.77808H40.7984C41.8647 9.68508 43.0608 10.6799 43.738 11.3674ZM34.2705 3.46774L32.6422 4.6088C32.2819 3.97975 31.4894 2.95572 30.8697 2.22427L32.4405 1.27338C33.1033 1.96094 33.8671 2.86795 34.2705 3.46774ZM33.8094 8.16366L34.6596 8.51476C34.5299 9.62657 34.3138 10.6213 34.0256 11.4845C34.8326 12.9181 36.3312 13.0937 38.5071 13.1083C40.0634 13.1083 42.5852 13.0059 44.3145 12.8303C44.0262 13.2546 43.7525 14.2055 43.6516 14.776C42.0665 14.8784 40.2075 14.9223 38.4639 14.9223C35.971 14.9223 34.3714 14.6443 33.2907 13.2399C32.8295 14.0884 32.2675 14.7467 31.6335 15.2295C31.3597 14.8199 30.6824 14.1031 30.2789 13.8251C31.4462 13.0205 32.2243 11.66 32.6422 9.83137H31.8352C31.5038 9.83137 31.0571 9.93378 30.9274 10.0654C30.8265 9.6412 30.4663 8.76345 30.2933 8.39773C30.5383 8.33921 30.7833 8.22218 31.0715 7.91497C31.2876 7.69553 31.7776 7.05185 32.2387 6.37892H30.6248V4.71121H33.5356L33.7086 4.63806L34.9478 5.19396C34.4291 5.98393 33.5933 7.24203 32.8728 8.20755H33.4924L33.8094 8.16366Z" fill="#FF8CCF"/>
<path d="M4.83054 1.34652L6.92002 2.03409C6.54535 2.98498 6.08423 3.97975 5.55105 4.93064V15.1417H3.47598V8.04663C3.15896 8.44161 2.84193 8.79271 2.52491 9.11455C2.30876 8.57327 1.68912 7.37369 1.31445 6.83242C2.71224 5.53043 4.05239 3.45311 4.83054 1.34652ZM15.3788 9.48028H11.8051V12.6694H15.0474V14.7028H6.54535V12.6694H9.67236V9.48028H6.15628V7.43221H9.67236V4.59417H6.84797V2.58999H14.8312V4.59417H11.8051V7.43221H15.3788V9.48028Z" stroke="white" stroke-width="2" mask="url(#path-1-outside-1_4322_2512)"/>
<path d="M22.2525 9.46565H24.1402C24.1834 9.12918 24.2122 8.77808 24.2411 8.42698C23.8232 8.57327 23.3909 8.71957 22.9441 8.8366C22.8577 8.66105 22.6992 8.42698 22.5407 8.19292C22.4542 8.63179 22.3533 9.05603 22.2525 9.46565ZM26.3882 4.46251H24.7886C25.048 4.78435 25.3506 5.07693 25.7109 5.34026C25.9703 5.07693 26.2008 4.78435 26.3882 4.46251ZM29.4431 4.46251H28.737C28.4056 5.19396 27.9877 5.82301 27.4978 6.36429C28.2039 6.65687 28.9964 6.89093 29.861 7.03722C29.4143 7.46147 28.8235 8.29532 28.5497 8.8366C27.5122 8.57328 26.5899 8.19292 25.783 7.71016C25.4371 7.90034 25.0913 8.07589 24.7166 8.23681H26.3305C26.3017 8.66105 26.2585 9.07066 26.2153 9.46565H29.3423C29.3423 9.46565 29.3134 9.97766 29.2846 10.241C29.0685 12.6548 28.8235 13.8105 28.4056 14.2786C28.0598 14.6736 27.7139 14.8052 27.2672 14.8784C26.8925 14.9369 26.3017 14.9515 25.6388 14.9369C25.61 14.3371 25.3939 13.5179 25.0769 12.9912C25.538 13.0351 25.9703 13.0498 26.2008 13.0498C26.4026 13.0498 26.5179 13.0205 26.662 12.8742C26.8205 12.7133 26.979 12.2305 27.1087 11.2065H25.8694C25.3651 12.8888 24.3419 14.2493 22.0651 15.1856C21.8346 14.6736 21.3014 13.9275 20.8691 13.5325C22.4398 12.962 23.2468 12.1574 23.6791 11.2065H22.2525V9.48028C22.1372 9.9484 22.0219 10.3726 21.8922 10.7384L20.5088 10.0801C20.6241 9.58268 20.7394 8.92437 20.8258 8.25144H20.3791V12.9327C20.3791 13.8544 20.2494 14.4103 19.673 14.7467C19.111 15.0686 18.4049 15.1125 17.4971 15.1125C17.4395 14.5273 17.1657 13.6496 16.9063 13.079C17.3962 13.1083 17.987 13.1083 18.1744 13.1083C18.3473 13.0937 18.4049 13.0644 18.4049 12.8888V10.5921C17.9582 11.4845 17.4106 12.2891 16.791 12.8303C16.6181 12.2159 16.1714 11.3382 15.8543 10.753C16.6037 10.1386 17.2665 9.21695 17.7421 8.25144H16.1569V6.40818H19.0534C18.2897 5.99856 17.3674 5.58895 16.6181 5.29637L17.9294 3.93587C18.232 4.03827 18.5634 4.1553 18.9093 4.28696C19.111 4.09679 19.3272 3.89198 19.5145 3.67254H16.3875V1.90243H20.9411L21.2582 1.82928L22.5839 2.66314C22.1228 3.46774 21.3734 4.33085 20.5953 5.03304C20.9699 5.22322 21.3014 5.39877 21.5608 5.55969L20.7682 6.40818H21.2582L21.5319 6.3204L22.7856 6.73001L22.7712 6.83242C23.2468 6.71539 23.6791 6.56909 24.0826 6.37892C23.8232 6.11559 23.5782 5.82301 23.3476 5.5158C23.2035 5.66209 23.0594 5.79376 22.9297 5.91079C22.5262 5.57432 21.7049 5.00379 21.2293 4.74046C22.3533 3.92124 23.4197 2.58999 23.9961 1.25875L25.9415 1.81465C25.7974 2.12186 25.6388 2.42907 25.4659 2.72166H29.4431V4.46251Z" stroke="white" stroke-width="2" mask="url(#path-1-outside-1_4322_2512)"/>
<path d="M43.738 11.3674L42.2826 12.8596C41.6486 12.1281 40.4669 11.031 39.3718 10.0362C38.7521 11.0456 37.7722 12.0257 36.2159 12.845C35.9277 12.4061 35.2649 11.7331 34.7749 11.3674C36.4897 10.6213 37.3543 9.68508 37.801 8.77808H35.0343V6.84705H38.2334V5.54506H35.3945V3.62866H36.8356C36.5618 3.08738 36.1871 2.42907 35.8989 1.91706L37.6714 1.22949C38.0893 1.8878 38.6801 2.80943 38.9683 3.37996L38.3775 3.62866H39.7897C40.1499 2.88257 40.4958 1.97557 40.7119 1.25875L42.8158 1.87317C42.4988 2.47296 42.1673 3.08738 41.8503 3.62866H43.2481V5.54506H40.3084V6.84705H43.6084V8.77808H40.7984C41.8647 9.68508 43.0608 10.6799 43.738 11.3674ZM34.2705 3.46774L32.6422 4.6088C32.2819 3.97975 31.4894 2.95572 30.8697 2.22427L32.4405 1.27338C33.1033 1.96094 33.8671 2.86795 34.2705 3.46774ZM33.8094 8.16366L34.6596 8.51476C34.5299 9.62657 34.3138 10.6213 34.0256 11.4845C34.8326 12.9181 36.3312 13.0937 38.5071 13.1083C40.0634 13.1083 42.5852 13.0059 44.3145 12.8303C44.0262 13.2546 43.7525 14.2055 43.6516 14.776C42.0665 14.8784 40.2075 14.9223 38.4639 14.9223C35.971 14.9223 34.3714 14.6443 33.2907 13.2399C32.8295 14.0884 32.2675 14.7467 31.6335 15.2295C31.3597 14.8199 30.6824 14.1031 30.2789 13.8251C31.4462 13.0205 32.2243 11.66 32.6422 9.83137H31.8352C31.5038 9.83137 31.0571 9.93378 30.9274 10.0654C30.8265 9.6412 30.4663 8.76345 30.2933 8.39773C30.5383 8.33921 30.7833 8.22218 31.0715 7.91497C31.2876 7.69553 31.7776 7.05185 32.2387 6.37892H30.6248V4.71121H33.5356L33.7086 4.63806L34.9478 5.19396C34.4291 5.98393 33.5933 7.24203 32.8728 8.20755H33.4924L33.8094 8.16366Z" stroke="white" stroke-width="2" mask="url(#path-1-outside-1_4322_2512)"/>
</svg>
