<svg width="110" height="42" viewBox="0 0 110 42" fill="none" xmlns="http://www.w3.org/2000/svg">
<mask id="path-1-outside-1_6004_297" maskUnits="userSpaceOnUse" x="2" y="0" width="105" height="42" fill="black">
<rect fill="white" x="2" width="105" height="42"/>
<path d="M16.6297 22.1189H25.4267C25.6266 20.6507 25.8265 19.2492 25.9931 17.9479H17.596C17.2628 19.3827 16.9629 20.7841 16.6297 22.1189ZM29.192 30.3274H36.7561V35.0323H6V30.3274H24.0605C24.2937 29.1262 24.4936 27.8916 24.7269 26.6236H9.99863C11.3981 22.1189 13.0309 15.3451 14.0639 9.67257H6.96633V5.03441H35.7898V9.67257H19.3621C19.1288 10.9072 18.8622 12.1752 18.5957 13.4432H27.0261L27.8592 13.2763L31.5912 13.6767C31.0581 18.7153 30.0917 24.8884 29.192 30.3274Z"/>
<path d="M49.585 28.8259V29.9604L54.8832 29.56C55.0498 29.3264 55.2164 29.0928 55.383 28.8259H49.585ZM43.5538 21.6517H45.2199V20.6507H43.5538V21.6517ZM51.2178 21.6517V20.6507H49.585V21.6517H51.2178ZM43.5538 16.9135V17.9145H45.2199V16.9135H43.5538ZM51.2178 16.9135H49.585V17.9145H51.2178V16.9135ZM63.0804 11.4077H69.6781C69.6781 11.4077 69.6448 12.9093 69.6448 13.4765C69.3782 26.9906 69.145 31.9958 68.0787 33.5641C67.2456 34.8321 66.4126 35.2325 65.2463 35.4995C64.18 35.7331 62.6472 35.7331 61.0477 35.6997C60.9478 34.365 60.4146 32.3962 59.6482 31.0949C60.9811 31.2284 62.1141 31.2284 62.7805 31.2284C63.2803 31.2284 63.5802 31.0949 63.9134 30.6277C64.5465 29.7602 64.8131 25.8561 64.9797 15.8457H62.9471C62.4806 24.8551 60.9811 31.562 55.5163 36C55.0831 35.2325 54.2168 34.1981 53.3837 33.3639C48.3188 33.8644 43.1206 34.3316 39.2219 34.6653L38.6888 30.6611C40.5215 30.561 42.754 30.4275 45.2199 30.2607V28.8259H39.6218V25.4557H45.2199V24.5881H39.7551V13.9771H45.2199V13.1429H38.9553V9.70594H45.2199V8.90511C43.4205 9.00521 41.6211 9.07195 39.9217 9.10532C39.7884 8.13764 39.3219 6.63608 38.8887 5.70177C43.887 5.46819 49.5184 4.90094 53.3171 4.1001L55.3497 7.67049C53.617 8.03754 51.651 8.30448 49.585 8.53806V9.70594H55.6163V13.1429H49.585V13.9771H55.1831V24.5881H49.585V25.4557H55.383V28.8259C57.4823 25.489 58.1487 21.2179 58.382 15.8457H55.7496V11.4077H58.482V4.63399H63.1137C63.1137 7.00313 63.1137 9.27216 63.0804 11.4077Z"/>
<path d="M83.4067 18.1814L83.9732 22.5527C82.8736 22.853 81.774 23.1199 80.641 23.4202V30.7946C80.641 32.9635 80.2745 34.1314 79.0416 34.8321C77.7753 35.5662 76.0759 35.6997 73.6767 35.6997C73.5434 34.4651 72.9437 32.5631 72.3772 31.3285C73.5434 31.3952 74.9097 31.3952 75.3428 31.3952C75.8093 31.3952 75.9759 31.2284 75.9759 30.7612V24.5881L72.9103 25.3556L71.7441 20.7174C72.977 20.4838 74.4098 20.1835 75.9759 19.8498V14.5443H72.2772V10.073H75.9759V4H80.641V10.073H83.54V14.5443H80.641V18.8154L83.4067 18.1814ZM95.6359 28.5589H98.1683V24.3212H95.6359V28.5589ZM88.7049 24.3212V28.5589H91.0708V24.3212H88.7049ZM91.0708 15.9458H88.7049V19.8165H91.0708V15.9458ZM98.1683 15.9458H95.6359V19.8165H98.1683V15.9458ZM95.6359 11.341H103V35.4327H98.1683V33.1971H88.7049V35.6663H84.1065V11.341H91.0708V4.06674H95.6359V11.341Z"/>
</mask>
<path d="M16.6297 22.1189H25.4267C25.6266 20.6507 25.8265 19.2492 25.9931 17.9479H17.596C17.2628 19.3827 16.9629 20.7841 16.6297 22.1189ZM29.192 30.3274H36.7561V35.0323H6V30.3274H24.0605C24.2937 29.1262 24.4936 27.8916 24.7269 26.6236H9.99863C11.3981 22.1189 13.0309 15.3451 14.0639 9.67257H6.96633V5.03441H35.7898V9.67257H19.3621C19.1288 10.9072 18.8622 12.1752 18.5957 13.4432H27.0261L27.8592 13.2763L31.5912 13.6767C31.0581 18.7153 30.0917 24.8884 29.192 30.3274Z" fill="#F99B96"/>
<path d="M49.585 28.8259V29.9604L54.8832 29.56C55.0498 29.3264 55.2164 29.0928 55.383 28.8259H49.585ZM43.5538 21.6517H45.2199V20.6507H43.5538V21.6517ZM51.2178 21.6517V20.6507H49.585V21.6517H51.2178ZM43.5538 16.9135V17.9145H45.2199V16.9135H43.5538ZM51.2178 16.9135H49.585V17.9145H51.2178V16.9135ZM63.0804 11.4077H69.6781C69.6781 11.4077 69.6448 12.9093 69.6448 13.4765C69.3782 26.9906 69.145 31.9958 68.0787 33.5641C67.2456 34.8321 66.4126 35.2325 65.2463 35.4995C64.18 35.7331 62.6472 35.7331 61.0477 35.6997C60.9478 34.365 60.4146 32.3962 59.6482 31.0949C60.9811 31.2284 62.1141 31.2284 62.7805 31.2284C63.2803 31.2284 63.5802 31.0949 63.9134 30.6277C64.5465 29.7602 64.8131 25.8561 64.9797 15.8457H62.9471C62.4806 24.8551 60.9811 31.562 55.5163 36C55.0831 35.2325 54.2168 34.1981 53.3837 33.3639C48.3188 33.8644 43.1206 34.3316 39.2219 34.6653L38.6888 30.6611C40.5215 30.561 42.754 30.4275 45.2199 30.2607V28.8259H39.6218V25.4557H45.2199V24.5881H39.7551V13.9771H45.2199V13.1429H38.9553V9.70594H45.2199V8.90511C43.4205 9.00521 41.6211 9.07195 39.9217 9.10532C39.7884 8.13764 39.3219 6.63608 38.8887 5.70177C43.887 5.46819 49.5184 4.90094 53.3171 4.1001L55.3497 7.67049C53.617 8.03754 51.651 8.30448 49.585 8.53806V9.70594H55.6163V13.1429H49.585V13.9771H55.1831V24.5881H49.585V25.4557H55.383V28.8259C57.4823 25.489 58.1487 21.2179 58.382 15.8457H55.7496V11.4077H58.482V4.63399H63.1137C63.1137 7.00313 63.1137 9.27216 63.0804 11.4077Z" fill="#F99B96"/>
<path d="M83.4067 18.1814L83.9732 22.5527C82.8736 22.853 81.774 23.1199 80.641 23.4202V30.7946C80.641 32.9635 80.2745 34.1314 79.0416 34.8321C77.7753 35.5662 76.0759 35.6997 73.6767 35.6997C73.5434 34.4651 72.9437 32.5631 72.3772 31.3285C73.5434 31.3952 74.9097 31.3952 75.3428 31.3952C75.8093 31.3952 75.9759 31.2284 75.9759 30.7612V24.5881L72.9103 25.3556L71.7441 20.7174C72.977 20.4838 74.4098 20.1835 75.9759 19.8498V14.5443H72.2772V10.073H75.9759V4H80.641V10.073H83.54V14.5443H80.641V18.8154L83.4067 18.1814ZM95.6359 28.5589H98.1683V24.3212H95.6359V28.5589ZM88.7049 24.3212V28.5589H91.0708V24.3212H88.7049ZM91.0708 15.9458H88.7049V19.8165H91.0708V15.9458ZM98.1683 15.9458H95.6359V19.8165H98.1683V15.9458ZM95.6359 11.341H103V35.4327H98.1683V33.1971H88.7049V35.6663H84.1065V11.341H91.0708V4.06674H95.6359V11.341Z" fill="#F99B96"/>
<path d="M16.6297 22.1189L13.2339 21.2711L12.1485 25.6189H16.6297V22.1189ZM25.4267 22.1189V25.6189H28.4823L28.8946 22.5911L25.4267 22.1189ZM25.9931 17.9479L29.4648 18.3923L29.9698 14.4479H25.9931V17.9479ZM17.596 17.9479V14.4479H14.8157L14.1867 17.1561L17.596 17.9479ZM29.192 30.3274L25.739 29.7562L25.0655 33.8274H29.192V30.3274ZM36.7561 30.3274H40.2561V26.8274H36.7561V30.3274ZM36.7561 35.0323V38.5323H40.2561V35.0323H36.7561ZM6 35.0323H2.5V38.5323H6V35.0323ZM6 30.3274V26.8274H2.5V30.3274H6ZM24.0605 30.3274V33.8274H26.9462L27.4963 30.9946L24.0605 30.3274ZM24.7269 26.6236L28.1691 27.2568L28.9295 23.1236H24.7269V26.6236ZM9.99863 26.6236L6.65622 25.5851L5.24622 30.1236H9.99863V26.6236ZM14.0639 9.67257L17.5073 10.2996L18.2588 6.17257H14.0639V9.67257ZM6.96633 9.67257H3.46633V13.1726H6.96633V9.67257ZM6.96633 5.03441V1.53441H3.46633V5.03441H6.96633ZM35.7898 5.03441H39.2898V1.53441H35.7898V5.03441ZM35.7898 9.67257V13.1726H39.2898V9.67257H35.7898ZM19.3621 9.67257V6.17257H16.4614L15.9229 9.02282L19.3621 9.67257ZM18.5957 13.4432L15.1705 12.7231L14.2833 16.9432H18.5957V13.4432ZM27.0261 13.4432V16.9432H27.3731L27.7134 16.875L27.0261 13.4432ZM27.8592 13.2763L28.2325 9.7963L27.6985 9.739L27.1718 9.84448L27.8592 13.2763ZM31.5912 13.6767L35.0718 14.045L35.4395 10.5696L31.9646 10.1967L31.5912 13.6767ZM49.585 28.8259V25.3259H46.085V28.8259H49.585ZM49.585 29.9604H46.085V33.7349L49.8488 33.4504L49.585 29.9604ZM54.8832 29.56L55.147 33.05L56.781 32.9265L57.7326 31.5924L54.8832 29.56ZM43.5538 21.6517H40.0538V25.1517H43.5538V21.6517ZM45.2199 21.6517V25.1517H48.7199V21.6517H45.2199ZM45.2199 20.6507H48.7199V17.1507H45.2199V20.6507ZM43.5538 20.6507V17.1507H40.0538V20.6507H43.5538ZM51.2178 21.6517V25.1517H54.7178V21.6517H51.2178ZM51.2178 20.6507H54.7178V17.1507H51.2178V20.6507ZM49.585 20.6507V17.1507H46.085V20.6507H49.585ZM49.585 21.6517H46.085V25.1517H49.585V21.6517ZM43.5538 16.9135V13.4135H40.0538V16.9135H43.5538ZM43.5538 17.9145H40.0538V21.4145H43.5538V17.9145ZM45.2199 17.9145V21.4145H48.7199V17.9145H45.2199ZM45.2199 16.9135H48.7199V13.4135H45.2199V16.9135ZM51.2178 16.9135H54.7178V13.4135H51.2178V16.9135ZM49.585 16.9135V13.4135H46.085V16.9135H49.585ZM49.585 17.9145H46.085V21.4145H49.585V17.9145ZM51.2178 17.9145V21.4145H54.7178V17.9145H51.2178ZM63.0804 11.4077L59.5808 11.3531L59.5253 14.9077H63.0804V11.4077ZM69.6781 11.4077L73.1773 11.4854L73.2567 7.90772H69.6781V11.4077ZM69.6448 13.4765L73.1441 13.5456L73.1448 13.5111V13.4765H69.6448ZM68.0787 33.5641L65.1843 31.5962L65.1687 31.6192L65.1535 31.6423L68.0787 33.5641ZM65.2463 35.4995L65.9952 38.9184L66.0112 38.9149L66.0272 38.9112L65.2463 35.4995ZM61.0477 35.6997L57.5575 35.9611L57.7951 39.1326L60.9747 39.1989L61.0477 35.6997ZM59.6482 31.0949L59.997 27.6123L53.1304 26.9247L56.6324 32.871L59.6482 31.0949ZM63.9134 30.6277L61.0862 28.5645L61.075 28.5798L61.064 28.5953L63.9134 30.6277ZM64.9797 15.8457L68.4792 15.9039L68.5385 12.3457H64.9797V15.8457ZM62.9471 15.8457V12.3457H59.6236L59.4518 15.6647L62.9471 15.8457ZM55.5163 36L52.4683 37.7204L54.5055 41.3296L57.7227 38.7169L55.5163 36ZM53.3837 33.3639L55.8603 30.8908L54.689 29.7179L53.0395 29.8809L53.3837 33.3639ZM39.2219 34.6653L35.7525 35.1272L36.1933 38.4373L39.5204 38.1525L39.2219 34.6653ZM38.6888 30.6611L38.4979 27.1663L34.72 27.3727L35.2194 31.123L38.6888 30.6611ZM45.2199 30.2607L45.4561 33.7527L48.7199 33.5319V30.2607H45.2199ZM45.2199 28.8259H48.7199V25.3259H45.2199V28.8259ZM39.6218 28.8259H36.1218V32.3259H39.6218V28.8259ZM39.6218 25.4557V21.9557H36.1218V25.4557H39.6218ZM45.2199 25.4557V28.9557H48.7199V25.4557H45.2199ZM45.2199 24.5881H48.7199V21.0881H45.2199V24.5881ZM39.7551 24.5881H36.2551V28.0881H39.7551V24.5881ZM39.7551 13.9771V10.4771H36.2551V13.9771H39.7551ZM45.2199 13.9771V17.4771H48.7199V13.9771H45.2199ZM45.2199 13.1429H48.7199V9.64286H45.2199V13.1429ZM38.9553 13.1429H35.4553V16.6429H38.9553V13.1429ZM38.9553 9.70594V6.20594H35.4553V9.70594H38.9553ZM45.2199 9.70594V13.2059H48.7199V9.70594H45.2199ZM45.2199 8.90511H48.7199V5.20499L45.0254 5.41051L45.2199 8.90511ZM39.9217 9.10532L36.4544 9.5829L36.879 12.6657L39.9904 12.6046L39.9217 9.10532ZM38.8887 5.70177L38.7253 2.20559L33.5226 2.44872L35.7134 7.17398L38.8887 5.70177ZM53.3171 4.1001L56.3587 2.36849L55.0948 0.148395L52.5951 0.67538L53.3171 4.1001ZM55.3497 7.67049L56.075 11.0945L60.7613 10.1018L58.3913 5.93888L55.3497 7.67049ZM49.585 8.53806L49.1918 5.06022L46.085 5.41147V8.53806H49.585ZM49.585 9.70594H46.085V13.2059H49.585V9.70594ZM55.6163 9.70594H59.1163V6.20594H55.6163V9.70594ZM55.6163 13.1429V16.6429H59.1163V13.1429H55.6163ZM49.585 13.1429V9.64286H46.085V13.1429H49.585ZM49.585 13.9771H46.085V17.4771H49.585V13.9771ZM55.1831 13.9771H58.6831V10.4771H55.1831V13.9771ZM55.1831 24.5881V28.0881H58.6831V24.5881H55.1831ZM49.585 24.5881V21.0881H46.085V24.5881H49.585ZM49.585 25.4557H46.085V28.9557H49.585V25.4557ZM55.383 25.4557H58.883V21.9557H55.383V25.4557ZM58.382 15.8457L61.8787 15.9975L62.0373 12.3457H58.382V15.8457ZM55.7496 15.8457H52.2496V19.3457H55.7496V15.8457ZM55.7496 11.4077V7.90772H52.2496V11.4077H55.7496ZM58.482 11.4077V14.9077H61.982V11.4077H58.482ZM58.482 4.63399V1.13399H54.982V4.63399H58.482ZM63.1137 4.63399H66.6137V1.13399H63.1137V4.63399ZM83.4067 18.1814L86.8777 17.7316L86.3823 13.9086L82.6247 14.7699L83.4067 18.1814ZM83.9732 22.5527L84.8953 25.929L87.8359 25.1259L87.4442 22.1029L83.9732 22.5527ZM80.641 23.4202L79.7442 20.0371L77.141 20.7271V23.4202H80.641ZM79.0416 34.8321L77.3121 31.7892L77.2991 31.7967L77.2861 31.8042L79.0416 34.8321ZM73.6767 35.6997L70.197 36.0754L70.5342 39.1997H73.6767V35.6997ZM72.3772 31.3285L72.5771 27.8342L66.7706 27.5019L69.196 32.788L72.3772 31.3285ZM75.9759 24.5881H79.4759V20.1039L75.126 21.1929L75.9759 24.5881ZM72.9103 25.3556L69.516 26.2091L70.3686 29.5999L73.7603 28.7508L72.9103 25.3556ZM71.7441 20.7174L71.0926 17.2786L67.4442 17.9698L68.3497 21.5709L71.7441 20.7174ZM75.9759 19.8498L76.7053 23.273L79.4759 22.6827V19.8498H75.9759ZM75.9759 14.5443H79.4759V11.0443H75.9759V14.5443ZM72.2772 14.5443H68.7772V18.0443H72.2772V14.5443ZM72.2772 10.073V6.57299H68.7772V10.073H72.2772ZM75.9759 10.073V13.573H79.4759V10.073H75.9759ZM75.9759 4V0.5H72.4759V4H75.9759ZM80.641 4H84.141V0.5H80.641V4ZM80.641 10.073H77.141V13.573H80.641V10.073ZM83.54 10.073H87.04V6.57299H83.54V10.073ZM83.54 14.5443V18.0443H87.04V14.5443H83.54ZM80.641 14.5443V11.0443H77.141V14.5443H80.641ZM80.641 18.8154H77.141V23.2085L81.423 22.2269L80.641 18.8154ZM95.6359 28.5589H92.1359V32.0589H95.6359V28.5589ZM98.1683 28.5589V32.0589H101.668V28.5589H98.1683ZM98.1683 24.3212H101.668V20.8212H98.1683V24.3212ZM95.6359 24.3212V20.8212H92.1359V24.3212H95.6359ZM88.7049 24.3212V20.8212H85.2049V24.3212H88.7049ZM88.7049 28.5589H85.2049V32.0589H88.7049V28.5589ZM91.0708 28.5589V32.0589H94.5708V28.5589H91.0708ZM91.0708 24.3212H94.5708V20.8212H91.0708V24.3212ZM91.0708 15.9458H94.5708V12.4458H91.0708V15.9458ZM88.7049 15.9458V12.4458H85.2049V15.9458H88.7049ZM88.7049 19.8165H85.2049V23.3165H88.7049V19.8165ZM91.0708 19.8165V23.3165H94.5708V19.8165H91.0708ZM98.1683 15.9458H101.668V12.4458H98.1683V15.9458ZM95.6359 15.9458V12.4458H92.1359V15.9458H95.6359ZM95.6359 19.8165H92.1359V23.3165H95.6359V19.8165ZM98.1683 19.8165V23.3165H101.668V19.8165H98.1683ZM95.6359 11.341H92.1359V14.841H95.6359V11.341ZM103 11.341H106.5V7.84098H103V11.341ZM103 35.4327V38.9327H106.5V35.4327H103ZM98.1683 35.4327H94.6683V38.9327H98.1683V35.4327ZM98.1683 33.1971H101.668V29.6971H98.1683V33.1971ZM88.7049 33.1971V29.6971H85.2049V33.1971H88.7049ZM88.7049 35.6663V39.1663H92.2049V35.6663H88.7049ZM84.1065 35.6663H80.6065V39.1663H84.1065V35.6663ZM84.1065 11.341V7.84098H80.6065V11.341H84.1065ZM91.0708 11.341V14.841H94.5708V11.341H91.0708ZM91.0708 4.06674V0.566735H87.5708V4.06674H91.0708ZM95.6359 4.06674H99.1359V0.566735H95.6359V4.06674ZM16.6297 22.1189V25.6189H25.4267V22.1189V18.6189H16.6297V22.1189ZM25.4267 22.1189L28.8946 22.5911C29.0902 21.1548 29.2959 19.7112 29.4648 18.3923L25.9931 17.9479L22.5215 17.5034C22.3571 18.7872 22.1629 20.1465 21.9587 21.6466L25.4267 22.1189ZM25.9931 17.9479V14.4479H17.596V17.9479V21.4479H25.9931V17.9479ZM17.596 17.9479L14.1867 17.1561C13.8333 18.6778 13.5594 19.9674 13.2339 21.2711L16.6297 22.1189L20.0255 22.9666C20.3664 21.6009 20.6922 20.0875 21.0053 18.7396L17.596 17.9479ZM29.192 30.3274V33.8274H36.7561V30.3274V26.8274H29.192V30.3274ZM36.7561 30.3274H33.2561V35.0323H36.7561H40.2561V30.3274H36.7561ZM36.7561 35.0323V31.5323H6V35.0323V38.5323H36.7561V35.0323ZM6 35.0323H9.5V30.3274H6H2.5V35.0323H6ZM6 30.3274V33.8274H24.0605V30.3274V26.8274H6V30.3274ZM24.0605 30.3274L27.4963 30.9946C27.7278 29.8024 27.9598 28.3946 28.1691 27.2568L24.7269 26.6236L21.2847 25.9903C21.0275 27.3885 20.8596 28.45 20.6246 29.6603L24.0605 30.3274ZM24.7269 26.6236V23.1236H9.99863V26.6236V30.1236H24.7269V26.6236ZM9.99863 26.6236L13.341 27.662C14.7891 23.0011 16.4533 16.0874 17.5073 10.2996L14.0639 9.67257L10.6205 9.04553C9.60853 14.6029 8.0072 21.2367 6.65622 25.5851L9.99863 26.6236ZM14.0639 9.67257V6.17257H6.96633V9.67257V13.1726H14.0639V9.67257ZM6.96633 9.67257H10.4663V5.03441H6.96633H3.46633V9.67257H6.96633ZM6.96633 5.03441V8.53441H35.7898V5.03441V1.53441H6.96633V5.03441ZM35.7898 5.03441H32.2898V9.67257H35.7898H39.2898V5.03441H35.7898ZM35.7898 9.67257V6.17257H19.3621V9.67257V13.1726H35.7898V9.67257ZM19.3621 9.67257L15.9229 9.02282C15.6975 10.2161 15.4385 11.4484 15.1705 12.7231L18.5957 13.4432L22.0208 14.1632C22.286 12.9019 22.5602 11.5983 22.8012 10.3223L19.3621 9.67257ZM18.5957 13.4432V16.9432H27.0261V13.4432V9.94317H18.5957V13.4432ZM27.0261 13.4432L27.7134 16.875L28.5465 16.7082L27.8592 13.2763L27.1718 9.84448L26.3388 10.0113L27.0261 13.4432ZM27.8592 13.2763L27.4858 16.7564L31.2178 17.1568L31.5912 13.6767L31.9646 10.1967L28.2325 9.7963L27.8592 13.2763ZM31.5912 13.6767L28.1106 13.3085C27.5893 18.2356 26.6382 24.3198 25.739 29.7562L29.192 30.3274L32.6451 30.8986C33.5452 25.4571 34.5268 19.195 35.0718 14.045L31.5912 13.6767ZM49.585 28.8259H46.085V29.9604H49.585H53.085V28.8259H49.585ZM49.585 29.9604L49.8488 33.4504L55.147 33.05L54.8832 29.56L54.6194 26.0699L49.3213 26.4703L49.585 29.9604ZM54.8832 29.56L57.7326 31.5924C57.8931 31.3674 58.1203 31.0505 58.3522 30.679L55.383 28.8259L52.4139 26.9727C52.3125 27.1351 52.2065 27.2854 52.0338 27.5275L54.8832 29.56ZM55.383 28.8259V25.3259H49.585V28.8259V32.3259H55.383V28.8259ZM43.5538 21.6517V25.1517H45.2199V21.6517V18.1517H43.5538V21.6517ZM45.2199 21.6517H48.7199V20.6507H45.2199H41.7199V21.6517H45.2199ZM45.2199 20.6507V17.1507H43.5538V20.6507V24.1507H45.2199V20.6507ZM43.5538 20.6507H40.0538V21.6517H43.5538H47.0538V20.6507H43.5538ZM51.2178 21.6517H54.7178V20.6507H51.2178H47.7178V21.6517H51.2178ZM51.2178 20.6507V17.1507H49.585V20.6507V24.1507H51.2178V20.6507ZM49.585 20.6507H46.085V21.6517H49.585H53.085V20.6507H49.585ZM49.585 21.6517V25.1517H51.2178V21.6517V18.1517H49.585V21.6517ZM43.5538 16.9135H40.0538V17.9145H43.5538H47.0538V16.9135H43.5538ZM43.5538 17.9145V21.4145H45.2199V17.9145V14.4145H43.5538V17.9145ZM45.2199 17.9145H48.7199V16.9135H45.2199H41.7199V17.9145H45.2199ZM45.2199 16.9135V13.4135H43.5538V16.9135V20.4135H45.2199V16.9135ZM51.2178 16.9135V13.4135H49.585V16.9135V20.4135H51.2178V16.9135ZM49.585 16.9135H46.085V17.9145H49.585H53.085V16.9135H49.585ZM49.585 17.9145V21.4145H51.2178V17.9145V14.4145H49.585V17.9145ZM51.2178 17.9145H54.7178V16.9135H51.2178H47.7178V17.9145H51.2178ZM63.0804 11.4077V14.9077H69.6781V11.4077V7.90772H63.0804V11.4077ZM69.6781 11.4077C66.179 11.3301 66.179 11.3301 66.179 11.3301C66.179 11.3301 66.179 11.3302 66.179 11.3302C66.179 11.3302 66.179 11.3303 66.179 11.3304C66.179 11.3307 66.179 11.331 66.179 11.3314C66.1789 11.3322 66.1789 11.3333 66.1789 11.3349C66.1788 11.3379 66.1787 11.3423 66.1786 11.348C66.1783 11.3595 66.178 11.3763 66.1775 11.3977C66.1766 11.4406 66.1753 11.5024 66.1737 11.5781C66.1705 11.7295 66.1663 11.9377 66.1621 12.1641C66.1539 12.6038 66.1448 13.1544 66.1448 13.4765H69.6448H73.1448C73.1448 13.2314 73.1524 12.7476 73.1609 12.2947C73.165 12.0749 73.1691 11.8721 73.1721 11.7243C73.1737 11.6504 73.175 11.5904 73.1759 11.549C73.1763 11.5283 73.1767 11.5122 73.1769 11.5014C73.177 11.496 73.1771 11.4919 73.1772 11.4892C73.1772 11.4879 73.1772 11.4869 73.1772 11.4862C73.1772 11.4859 73.1773 11.4857 73.1773 11.4855C73.1773 11.4855 73.1773 11.4854 73.1773 11.4854C73.1773 11.4854 73.1773 11.4854 73.1773 11.4854C73.1773 11.4854 73.1773 11.4854 69.6781 11.4077ZM69.6448 13.4765L66.1455 13.4075C66.0118 20.1864 65.8878 24.7208 65.6706 27.7497C65.5618 29.2661 65.4365 30.2978 65.3006 30.9933C65.1521 31.7536 65.047 31.7982 65.1843 31.5962L68.0787 33.5641L70.973 35.532C71.6435 34.5459 71.9674 33.3768 72.1708 32.3352C72.3869 31.2288 72.5365 29.8705 72.6527 28.2503C72.8853 25.006 73.0113 20.2807 73.1441 13.5456L69.6448 13.4765ZM68.0787 33.5641L65.1535 31.6423C64.9476 31.9557 64.8635 31.983 64.9065 31.9556C64.9275 31.9422 64.8648 31.9963 64.4654 32.0877L65.2463 35.4995L66.0272 38.9112C66.7941 38.7357 67.731 38.4562 68.6684 37.8588C69.6277 37.2475 70.3767 36.4405 71.0038 35.4859L68.0787 33.5641ZM65.2463 35.4995L64.4974 32.0805C63.9122 32.2087 62.8145 32.2358 61.1208 32.2004L61.0477 35.6997L60.9747 39.1989C62.4799 39.2303 64.4479 39.2574 65.9952 38.9184L65.2463 35.4995ZM61.0477 35.6997L64.538 35.4383C64.4045 33.656 63.7436 31.1518 62.6641 29.3188L59.6482 31.0949L56.6324 32.871C57.0857 33.6407 57.4911 35.0739 57.5575 35.9611L61.0477 35.6997ZM59.6482 31.0949L59.2995 34.5775C60.8187 34.7296 62.1008 34.7284 62.7805 34.7284V31.2284V27.7284C62.1273 27.7284 61.1435 27.7271 59.997 27.6123L59.6482 31.0949ZM62.7805 31.2284V34.7284C63.3333 34.7284 64.1484 34.6572 65.0054 34.2182C65.8561 33.7823 66.4069 33.1592 66.7628 32.6602L63.9134 30.6277L61.064 28.5953C61.0868 28.5634 61.3209 28.2406 61.8135 27.9883C62.3122 27.7327 62.7275 27.7284 62.7805 27.7284V31.2284ZM63.9134 30.6277L66.7407 32.6909C67.4142 31.768 67.6483 30.643 67.7678 29.983C67.9175 29.1556 68.026 28.1284 68.1126 26.9143C68.2868 24.4733 68.3959 20.9091 68.4792 15.9039L64.9797 15.8457L61.4802 15.7874C61.3969 20.7927 61.2895 24.1857 61.1304 26.4163C61.0504 27.5379 60.9632 28.275 60.8797 28.7365C60.7658 29.3654 60.7292 29.0537 61.0862 28.5645L63.9134 30.6277ZM64.9797 15.8457V12.3457H62.9471V15.8457V19.3457H64.9797V15.8457ZM62.9471 15.8457L59.4518 15.6647C58.9906 24.5704 57.5149 29.8682 53.3099 33.2831L55.5163 36L57.7227 38.7169C64.4473 33.2559 65.9705 25.1397 66.4424 16.0267L62.9471 15.8457ZM55.5163 36L58.5643 34.2796C57.9036 33.1091 56.7823 31.8141 55.8603 30.8908L53.3837 33.3639L50.9071 35.8371C51.6512 36.5822 52.2626 37.3559 52.4683 37.7204L55.5163 36ZM53.3837 33.3639L53.0395 29.8809C47.9935 30.3795 42.811 30.8453 38.9234 31.178L39.2219 34.6653L39.5204 38.1525C43.4301 37.8179 48.6441 37.3493 53.7279 36.847L53.3837 33.3639ZM39.2219 34.6653L42.6913 34.2033L42.1581 30.1992L38.6888 30.6611L35.2194 31.123L35.7525 35.1272L39.2219 34.6653ZM38.6888 30.6611L38.8797 34.1559C40.7265 34.055 42.9742 33.9206 45.4561 33.7527L45.2199 30.2607L44.9836 26.7687C42.5339 26.9344 40.3165 27.067 38.4979 27.1663L38.6888 30.6611ZM45.2199 30.2607H48.7199V28.8259H45.2199H41.7199V30.2607H45.2199ZM45.2199 28.8259V25.3259H39.6218V28.8259V32.3259H45.2199V28.8259ZM39.6218 28.8259H43.1218V25.4557H39.6218H36.1218V28.8259H39.6218ZM39.6218 25.4557V28.9557H45.2199V25.4557V21.9557H39.6218V25.4557ZM45.2199 25.4557H48.7199V24.5881H45.2199H41.7199V25.4557H45.2199ZM45.2199 24.5881V21.0881H39.7551V24.5881V28.0881H45.2199V24.5881ZM39.7551 24.5881H43.2551V13.9771H39.7551H36.2551V24.5881H39.7551ZM39.7551 13.9771V17.4771H45.2199V13.9771V10.4771H39.7551V13.9771ZM45.2199 13.9771H48.7199V13.1429H45.2199H41.7199V13.9771H45.2199ZM45.2199 13.1429V9.64286H38.9553V13.1429V16.6429H45.2199V13.1429ZM38.9553 13.1429H42.4553V9.70594H38.9553H35.4553V13.1429H38.9553ZM38.9553 9.70594V13.2059H45.2199V9.70594V6.20594H38.9553V9.70594ZM45.2199 9.70594H48.7199V8.90511H45.2199H41.7199V9.70594H45.2199ZM45.2199 8.90511L45.0254 5.41051C43.268 5.50828 41.5105 5.57345 39.853 5.60599L39.9217 9.10532L39.9904 12.6046C41.7317 12.5705 43.573 12.5021 45.4143 12.3997L45.2199 8.90511ZM39.9217 9.10532L43.3889 8.62774C43.2013 7.26562 42.6204 5.42951 42.064 4.22956L38.8887 5.70177L35.7134 7.17398C36.0234 7.84265 36.3755 9.00967 36.4544 9.5829L39.9217 9.10532ZM38.8887 5.70177L39.0521 9.19796C44.1358 8.96039 49.9777 8.38103 54.0391 7.52483L53.3171 4.1001L52.5951 0.67538C49.059 1.42085 43.6382 1.976 38.7253 2.20559L38.8887 5.70177ZM53.3171 4.1001L50.2754 5.83172L52.3081 9.4021L55.3497 7.67049L58.3913 5.93888L56.3587 2.36849L53.3171 4.1001ZM55.3497 7.67049L54.6244 4.24647C53.0591 4.57804 51.2265 4.83018 49.1918 5.06022L49.585 8.53806L49.9782 12.0159C52.0755 11.7788 54.1748 11.497 56.075 11.0945L55.3497 7.67049ZM49.585 8.53806H46.085V9.70594H49.585H53.085V8.53806H49.585ZM49.585 9.70594V13.2059H55.6163V9.70594V6.20594H49.585V9.70594ZM55.6163 9.70594H52.1163V13.1429H55.6163H59.1163V9.70594H55.6163ZM55.6163 13.1429V9.64286H49.585V13.1429V16.6429H55.6163V13.1429ZM49.585 13.1429H46.085V13.9771H49.585H53.085V13.1429H49.585ZM49.585 13.9771V17.4771H55.1831V13.9771V10.4771H49.585V13.9771ZM55.1831 13.9771H51.6831V24.5881H55.1831H58.6831V13.9771H55.1831ZM55.1831 24.5881V21.0881H49.585V24.5881V28.0881H55.1831V24.5881ZM49.585 24.5881H46.085V25.4557H49.585H53.085V24.5881H49.585ZM49.585 25.4557V28.9557H55.383V25.4557V21.9557H49.585V25.4557ZM55.383 25.4557H51.883V28.8259H55.383H58.883V25.4557H55.383ZM55.383 28.8259L58.3455 30.6896C60.9655 26.5251 61.642 21.4498 61.8787 15.9975L58.382 15.8457L54.8853 15.6939C54.6555 20.9861 53.9991 24.453 52.4205 26.9621L55.383 28.8259ZM58.382 15.8457V12.3457H55.7496V15.8457V19.3457H58.382V15.8457ZM55.7496 15.8457H59.2496V11.4077H55.7496H52.2496V15.8457H55.7496ZM55.7496 11.4077V14.9077H58.482V11.4077V7.90772H55.7496V11.4077ZM58.482 11.4077H61.982V4.63399H58.482H54.982V11.4077H58.482ZM58.482 4.63399V8.13399H63.1137V4.63399V1.13399H58.482V4.63399ZM63.1137 4.63399H59.6137C59.6137 7.0092 59.6136 9.24989 59.5808 11.3531L63.0804 11.4077L66.58 11.4623C66.6138 9.29442 66.6137 6.99705 66.6137 4.63399H63.1137ZM83.4067 18.1814L79.9358 18.6312L80.5022 23.0025L83.9732 22.5527L87.4442 22.1029L86.8777 17.7316L83.4067 18.1814ZM83.9732 22.5527L83.0511 19.1763C81.9249 19.4839 81.0143 19.7004 79.7442 20.0371L80.641 23.4202L81.5378 26.8034C82.5336 26.5394 83.8223 26.2221 84.8953 25.929L83.9732 22.5527ZM80.641 23.4202H77.141V30.7946H80.641H84.141V23.4202H80.641ZM80.641 30.7946H77.141C77.141 31.2472 77.1213 31.571 77.092 31.8042C77.0777 31.9175 77.0625 31.998 77.05 32.0521C77.0375 32.1058 77.029 32.1283 77.0294 32.1273C77.034 32.115 77.0698 32.0312 77.1563 31.9304C77.2421 31.8305 77.3143 31.788 77.3121 31.7892L79.0416 34.8321L80.771 37.875C82.0887 37.1261 83.0402 36.0243 83.5779 34.6005C84.0514 33.3469 84.141 32.0004 84.141 30.7946H80.641ZM79.0416 34.8321L77.2861 31.8042C76.9463 32.0012 76.1806 32.1997 73.6767 32.1997V35.6997V39.1997C75.9712 39.1997 78.6044 39.1312 80.797 37.8601L79.0416 34.8321ZM73.6767 35.6997L77.1565 35.324C76.971 33.6053 76.2287 31.33 75.5583 29.8689L72.3772 31.3285L69.196 32.788C69.6586 33.7962 70.1159 35.3248 70.197 36.0754L73.6767 35.6997ZM72.3772 31.3285L72.1772 34.8228C73.4573 34.896 74.9186 34.8952 75.3428 34.8952V31.3952V27.8952C74.9007 27.8952 73.6296 27.8944 72.5771 27.8342L72.3772 31.3285ZM75.3428 31.3952V34.8952C75.8272 34.8952 77.1946 34.8444 78.3109 33.7265C79.4259 32.61 79.4759 31.244 79.4759 30.7612H75.9759H72.4759C72.4759 30.7456 72.4427 29.6966 73.3577 28.7802C74.2741 27.8626 75.325 27.8952 75.3428 27.8952V31.3952ZM75.9759 30.7612H79.4759V24.5881H75.9759H72.4759V30.7612H75.9759ZM75.9759 24.5881L75.126 21.1929L72.0604 21.9604L72.9103 25.3556L73.7603 28.7508L76.8259 27.9833L75.9759 24.5881ZM72.9103 25.3556L76.3047 24.5021L75.1384 19.8639L71.7441 20.7174L68.3497 21.5709L69.516 26.2091L72.9103 25.3556ZM71.7441 20.7174L72.3956 24.1562C73.6717 23.9145 75.1394 23.6066 76.7053 23.273L75.9759 19.8498L75.2466 16.4267C73.6802 16.7604 72.2823 17.0532 71.0926 17.2786L71.7441 20.7174ZM75.9759 19.8498H79.4759V14.5443H75.9759H72.4759V19.8498H75.9759ZM75.9759 14.5443V11.0443H72.2772V14.5443V18.0443H75.9759V14.5443ZM72.2772 14.5443H75.7772V10.073H72.2772H68.7772V14.5443H72.2772ZM72.2772 10.073V13.573H75.9759V10.073V6.57299H72.2772V10.073ZM75.9759 10.073H79.4759V4H75.9759H72.4759V10.073H75.9759ZM75.9759 4V7.5H80.641V4V0.5H75.9759V4ZM80.641 4H77.141V10.073H80.641H84.141V4H80.641ZM80.641 10.073V13.573H83.54V10.073V6.57299H80.641V10.073ZM83.54 10.073H80.04V14.5443H83.54H87.04V10.073H83.54ZM83.54 14.5443V11.0443H80.641V14.5443V18.0443H83.54V14.5443ZM80.641 14.5443H77.141V18.8154H80.641H84.141V14.5443H80.641ZM80.641 18.8154L81.423 22.2269L84.1888 21.593L83.4067 18.1814L82.6247 14.7699L79.859 15.4039L80.641 18.8154ZM95.6359 28.5589V32.0589H98.1683V28.5589V25.0589H95.6359V28.5589ZM98.1683 28.5589H101.668V24.3212H98.1683H94.6683V28.5589H98.1683ZM98.1683 24.3212V20.8212H95.6359V24.3212V27.8212H98.1683V24.3212ZM95.6359 24.3212H92.1359V28.5589H95.6359H99.1359V24.3212H95.6359ZM88.7049 24.3212H85.2049V28.5589H88.7049H92.2049V24.3212H88.7049ZM88.7049 28.5589V32.0589H91.0708V28.5589V25.0589H88.7049V28.5589ZM91.0708 28.5589H94.5708V24.3212H91.0708H87.5708V28.5589H91.0708ZM91.0708 24.3212V20.8212H88.7049V24.3212V27.8212H91.0708V24.3212ZM91.0708 15.9458V12.4458H88.7049V15.9458V19.4458H91.0708V15.9458ZM88.7049 15.9458H85.2049V19.8165H88.7049H92.2049V15.9458H88.7049ZM88.7049 19.8165V23.3165H91.0708V19.8165V16.3165H88.7049V19.8165ZM91.0708 19.8165H94.5708V15.9458H91.0708H87.5708V19.8165H91.0708ZM98.1683 15.9458V12.4458H95.6359V15.9458V19.4458H98.1683V15.9458ZM95.6359 15.9458H92.1359V19.8165H95.6359H99.1359V15.9458H95.6359ZM95.6359 19.8165V23.3165H98.1683V19.8165V16.3165H95.6359V19.8165ZM98.1683 19.8165H101.668V15.9458H98.1683H94.6683V19.8165H98.1683ZM95.6359 11.341V14.841H103V11.341V7.84098H95.6359V11.341ZM103 11.341H99.5V35.4327H103H106.5V11.341H103ZM103 35.4327V31.9327H98.1683V35.4327V38.9327H103V35.4327ZM98.1683 35.4327H101.668V33.1971H98.1683H94.6683V35.4327H98.1683ZM98.1683 33.1971V29.6971H88.7049V33.1971V36.6971H98.1683V33.1971ZM88.7049 33.1971H85.2049V35.6663H88.7049H92.2049V33.1971H88.7049ZM88.7049 35.6663V32.1663H84.1065V35.6663V39.1663H88.7049V35.6663ZM84.1065 35.6663H87.6065V11.341H84.1065H80.6065V35.6663H84.1065ZM84.1065 11.341V14.841H91.0708V11.341V7.84098H84.1065V11.341ZM91.0708 11.341H94.5708V4.06674H91.0708H87.5708V11.341H91.0708ZM91.0708 4.06674V7.56674H95.6359V4.06674V0.566735H91.0708V4.06674ZM95.6359 4.06674H92.1359V11.341H95.6359H99.1359V4.06674H95.6359Z" fill="white" mask="url(#path-1-outside-1_6004_297)"/>
</svg>
