<svg width="19" height="34" viewBox="0 0 19 34" fill="none" xmlns="http://www.w3.org/2000/svg">
<path d="M18.9677 1.38155C19.0536 1.23285 18.959 1.04379 18.7901 1.02651L8.76261 0.00119746C8.66391 -0.00889485 8.56973 0.0455382 8.52791 0.136847L0.0219799 18.7107C-0.0491713 18.866 0.0609449 19.0443 0.229723 19.0469L7.34305 19.1582C7.48333 19.1604 7.58992 19.287 7.57019 19.428L5.56929 33.7294C5.53402 33.9815 5.86226 34.1044 5.99675 33.8895L16.78 16.6559C16.8798 16.4964 16.7642 16.2884 16.5782 16.2926L10.6875 16.4229C10.5052 16.4269 10.3892 16.2264 10.4814 16.0667L18.9677 1.38155Z" fill="#FCAF15"/>
</svg>
